SplineFontDB: 3.0
FontName: tsn4n-smcp
FullName: tsn4n-smcp
FamilyName: tsn4n-smcp
Weight: Regular
Copyright: Copyright (c) 2003 by Bitstream, Inc. All Rights Reserved.\nDejaVu changes are in public domain\n
Version: 2.33
ItalicAngle: 0
UnderlinePosition: -85
UnderlineWidth: 90
Ascent: 1556
Descent: 492
sfntRevision: 0x0002547a
LayerCount: 2
Layer: 0 1 "Back"  1
Layer: 1 1 "Fore"  0
NeedsXUIDChange: 1
XUID: [1021 545 1002448030 3418361]
FSType: 0
OS2Version: 1
OS2_WeightWidthSlopeOnly: 0
OS2_UseTypoMetrics: 1
CreationTime: 1298817441
ModificationTime: 1337553068
PfmFamily: 17
TTFWeight: 400
TTFWidth: 5
LineGap: 0
VLineGap: 0
Panose: 2 6 6 3 5 6 5 2 2 4
OS2TypoAscent: 1556
OS2TypoAOffset: 0
OS2TypoDescent: -492
OS2TypoDOffset: 0
OS2TypoLinegap: 0
OS2WinAscent: 1556
OS2WinAOffset: 0
OS2WinDescent: 492
OS2WinDOffset: 0
HheadAscent: 1556
HheadAOffset: 0
HheadDescent: -492
HheadDOffset: 0
OS2SubXSize: 1331
OS2SubYSize: 1433
OS2SubXOff: 0
OS2SubYOff: 286
OS2SupXSize: 1331
OS2SupYSize: 1433
OS2SupXOff: 0
OS2SupYOff: 983
OS2StrikeYSize: 102
OS2StrikeYPos: 530
OS2Vendor: 'PfEd'
OS2CodePages: 6000009f.dfd70000
OS2UnicodeRanges: e40006ff.5200f9fb.0a040020.00000000
MarkAttachClasses: 1
DEI: 91125
TtTable: prep
PUSHW_1
 511
SCANCTRL
PUSHB_1
 1
SCANTYPE
SVTCA[y-axis]
MPPEM
PUSHB_1
 8
LT
IF
PUSHB_2
 1
 1
INSTCTRL
EIF
PUSHB_2
 70
 6
CALL
IF
POP
PUSHB_1
 16
EIF
MPPEM
PUSHB_1
 20
GT
IF
POP
PUSHB_1
 128
EIF
SCVTCI
PUSHB_1
 6
CALL
NOT
IF
SVTCA[y-axis]
PUSHB_1
 2
DUP
RCVT
PUSHB_1
 3
CALL
WCVTP
PUSHB_1
 3
DUP
RCVT
PUSHB_3
 2
 163
 2
CALL
PUSHB_1
 3
CALL
WCVTP
PUSHB_1
 4
DUP
RCVT
PUSHB_3
 2
 84
 2
CALL
PUSHB_1
 3
CALL
WCVTP
SVTCA[x-axis]
PUSHB_1
 5
DUP
RCVT
PUSHB_1
 3
CALL
WCVTP
PUSHB_1
 7
DUP
RCVT
PUSHB_3
 5
 28
 2
CALL
PUSHB_2
 3
 70
SROUND
CALL
WCVTP
PUSHB_1
 6
DUP
RCVT
PUSHB_3
 7
 17
 2
CALL
PUSHB_2
 3
 70
SROUND
CALL
WCVTP
PUSHB_1
 8
DUP
RCVT
PUSHW_3
 5
 32767
 2
CALL
PUSHB_2
 3
 70
SROUND
CALL
WCVTP
PUSHB_1
 9
DUP
RCVT
PUSHB_3
 8
 161
 2
CALL
PUSHB_2
 3
 70
SROUND
CALL
WCVTP

StartChar: exclam
Encoding: 33 33 1
Width: 798
VWidth: 0
GlyphClass: 2
Flags: W
HStem: -23 267<314.098 482.81> 1183 20G<278 520>
VStem: 278 242<17.1919 203.777 374 1203>
LayerCount: 2
Fore
SplineSet
278 110 m 256,0,1
 278 166 278 166 313 205 c 128,-1,2
 348 244 348 244 399 244 c 128,-1,3
 450 244 450 244 485 205 c 128,-1,4
 520 166 520 166 520 110 c 128,-1,5
 520 54 520 54 484 16 c 0,6,7
 446 -23 446 -23 398 -23 c 0,8,9
 348 -23 348 -23 313 15.5 c 128,-1,10
 278 54 278 54 278 110 c 256,0,1
278 1203 m 1,11,-1
 520 1203 l 1,12,-1
 520 374 l 1,13,-1
 278 374 l 1,14,-1
 278 1203 l 1,11,-1
EndSplineSet
Validated: 1
EndChar

StartChar: quotedbl
Encoding: 34 34 2
Width: 869
VWidth: 0
GlyphClass: 2
Flags: W
HStem: 648 555<201 345 524 668>
VStem: 201 144<648 1203> 524 144<648 1203>
LayerCount: 2
Fore
SplineSet
201 648 m 1,0,-1
 201 1203 l 1,1,-1
 345 1203 l 1,2,-1
 345 648 l 1,3,-1
 201 648 l 1,0,-1
524 648 m 1,4,-1
 524 1203 l 1,5,-1
 668 1203 l 1,6,-1
 668 648 l 1,7,-1
 524 648 l 1,4,-1
EndSplineSet
Validated: 1
EndChar

StartChar: numbersign
Encoding: 35 35 3
Width: 1542
VWidth: 0
GlyphClass: 2
Flags: W
HStem: 0 21G<324 484.275 736 898.013> 306 153<158 416 608 832 1018 1292> 697 154<250 528 720 940 1126 1384>
VStem: 324 154<0 154> 658 154<1031 1185> 736 156<0 156> 1066 156<1029 1185>
DStem2: 324 0 478 0 0.271287 0.962499<41.7781 319.483 518.832 726.204 926.516 1231.17> 736 0 892 0 0.268273 0.963343<41.8505 320.537 517.827 726.178 924.431 1230.09>
LayerCount: 2
Fore
SplineSet
158 306 m 1,0,-1
 158 459 l 1,1,-1
 452 459 l 1,2,-1
 528 697 l 1,3,-1
 250 697 l 1,4,-1
 250 851 l 1,5,-1
 562 851 l 1,6,-1
 658 1185 l 1,7,-1
 812 1185 l 1,8,-1
 720 851 l 1,9,-1
 974 851 l 1,10,-1
 1066 1185 l 1,11,-1
 1222 1185 l 1,12,-1
 1126 851 l 1,13,-1
 1384 851 l 1,14,-1
 1384 697 l 1,15,-1
 1090 697 l 1,16,-1
 1018 459 l 1,17,-1
 1292 459 l 1,18,-1
 1292 306 l 1,19,-1
 984 306 l 1,20,-1
 892 0 l 1,21,-1
 736 0 l 1,22,-1
 832 306 l 1,23,-1
 574 306 l 1,24,-1
 478 0 l 1,25,-1
 324 0 l 1,26,-1
 416 306 l 1,27,-1
 158 306 l 1,0,-1
608 459 m 1,28,-1
 868 459 l 1,29,-1
 940 697 l 1,30,-1
 684 697 l 1,31,-1
 608 459 l 1,28,-1
EndSplineSet
Validated: 1
EndChar

StartChar: dollar
Encoding: 36 36 4
Width: 1167
VWidth: 0
GlyphClass: 2
Flags: W
HStem: -36 100<354.725 527 617 749.882> 420 170<617 719.672> 946 102<399.447 527 617 755.823>
VStem: 174 178<683.75 900.797> 174 98<141.443 285> 527 90<-254 -36 64 420 616 946 1048 1264> 804 191<115.437 344.522> 837 99<742 863.13>
LayerCount: 2
Fore
SplineSet
174 67 m 1,0,-1
 174 285 l 1,1,-1
 272 285 l 1,2,3
 272 177 272 177 337 120.5 c 128,-1,4
 402 64 402 64 527 64 c 1,5,-1
 527 446 l 1,6,7
 331 498 331 498 252.5 566.5 c 128,-1,8
 174 635 174 635 174 757 c 128,-1,9
 174 879 174 879 267 963.5 c 128,-1,10
 360 1048 360 1048 527 1048 c 1,11,-1
 527 1264 l 1,12,-1
 617 1264 l 1,13,-1
 617 1048 l 1,14,15
 755 1048 755 1048 936 949 c 1,16,-1
 936 742 l 1,17,-1
 837 742 l 1,18,19
 827 833 827 833 770.5 889.5 c 128,-1,20
 714 946 714 946 617 946 c 1,21,-1
 617 590 l 1,22,23
 827 535 827 535 911 464.5 c 128,-1,24
 995 394 995 394 995 266.5 c 128,-1,25
 995 139 995 139 896 51.5 c 128,-1,26
 797 -36 797 -36 617 -36 c 1,27,-1
 617 -254 l 1,28,-1
 527 -254 l 1,29,-1
 527 -36 l 1,30,31
 370 -36 370 -36 174 67 c 1,0,-1
352 791.5 m 128,-1,33
 352 725 352 725 394.5 683.5 c 128,-1,34
 437 642 437 642 527 616 c 1,35,-1
 527 946 l 1,36,37
 444 946 444 946 398 902 c 128,-1,32
 352 858 352 858 352 791.5 c 128,-1,33
617 64 m 1,38,39
 708 64 708 64 756 111.5 c 128,-1,40
 804 159 804 159 804 230 c 0,41,42
 804 371 804 371 617 420 c 1,43,-1
 617 64 l 1,38,39
EndSplineSet
Validated: 1
EndChar

StartChar: percent
Encoding: 37 37 5
Width: 1706
VWidth: 0
GlyphClass: 2
Flags: W
HStem: -34 94<1194.53 1391.48> 560 91<315.979 510.92 1207.49 1377.37> 1140 94<314.437 512.383>
VStem: 113 144<716.195 1076.53> 384 137<-34 103> 570 145<715.627 1076.62> 991 145<123.302 482.322> 1185 137<1097 1234> 1448 145<123.277 481.707>
DStem2: 384 -34 521 -34 0.534068 0.845441<73.1674 1499.81>
LayerCount: 2
Fore
SplineSet
113 894 m 128,-1,1
 113 1046 113 1046 194.5 1140 c 128,-1,2
 276 1234 276 1234 413 1234 c 256,3,4
 424 1234 l 0,5,6
 550 1234 550 1234 632.5 1143 c 128,-1,7
 715 1052 715 1052 715 896 c 128,-1,8
 715 740 715 740 633.5 650 c 128,-1,9
 552 560 552 560 413 560 c 256,10,11
 274 560 274 560 193.5 651 c 128,-1,0
 113 742 113 742 113 894 c 128,-1,1
257 897 m 128,-1,13
 257 782 257 782 299.5 716.5 c 128,-1,14
 342 651 342 651 414 651 c 128,-1,15
 486 651 486 651 528 716.5 c 128,-1,16
 570 782 570 782 570 896 c 256,17,18
 570 1011 570 1011 528.5 1075.5 c 128,-1,19
 487 1140 487 1140 414 1140 c 128,-1,20
 341 1140 341 1140 299 1076 c 128,-1,12
 257 1012 257 1012 257 897 c 128,-1,13
384 -34 m 1,21,-1
 1185 1234 l 1,22,-1
 1322 1234 l 1,23,-1
 521 -34 l 1,24,-1
 384 -34 l 1,21,-1
991 302.5 m 128,-1,26
 991 457 991 457 1072.5 547.5 c 128,-1,27
 1154 638 1154 638 1292.5 638 c 128,-1,28
 1431 638 1431 638 1512 547 c 128,-1,29
 1593 456 1593 456 1593 302 c 256,30,31
 1593 148 1593 148 1511.5 57 c 128,-1,32
 1430 -34 1430 -34 1291.5 -34 c 128,-1,33
 1153 -34 1153 -34 1072 57 c 128,-1,25
 991 148 991 148 991 302.5 c 128,-1,26
1136 303 m 128,-1,35
 1136 189 1136 189 1178 124.5 c 128,-1,36
 1220 60 1220 60 1293 60 c 256,37,38
 1366 60 1366 60 1407 124.5 c 128,-1,39
 1448 189 1448 189 1448 302.5 c 128,-1,40
 1448 416 1448 416 1406.5 481.5 c 128,-1,41
 1365 547 1365 547 1292.5 547 c 128,-1,42
 1220 547 1220 547 1178 482 c 128,-1,34
 1136 417 1136 417 1136 303 c 128,-1,35
EndSplineSet
Validated: 1
EndChar

StartChar: ampersand
Encoding: 38 38 6
Width: 1633
VWidth: 0
GlyphClass: 2
Flags: W
HStem: -29 121<467.46 838.74> 0 106<1322 1511> 586 107<1034 1179 1282.75 1426> 1118 107<535.475 798.947>
VStem: 122 184<247.28 524.384> 311 173<852.505 1067.69> 873 102<899 1040.79> 1179 109<385.587 586>
DStem2: 655 733 434 689 0.729103 -0.684404<-131.423 582.789 704.711 875.698>
LayerCount: 2
Fore
SplineSet
122 365 m 0,0,1
 122 579 122 579 401 739 c 1,2,3
 311 837 311 837 311 954.5 c 128,-1,4
 311 1072 311 1072 407.5 1148.5 c 128,-1,5
 504 1225 504 1225 670 1225 c 0,6,7
 781 1225 781 1225 975 1157 c 1,8,-1
 975 899 l 1,9,-1
 873 899 l 1,10,11
 850 1118 850 1118 670 1118 c 0,12,13
 587 1118 587 1118 535.5 1074.5 c 128,-1,14
 484 1031 484 1031 484 972.5 c 128,-1,15
 484 914 484 914 517 867 c 128,-1,16
 550 820 550 820 655 733 c 1,17,-1
 1109 306 l 1,18,19
 1179 441 1179 441 1179 586 c 1,20,-1
 1034 586 l 1,21,-1
 1034 693 l 1,22,-1
 1426 693 l 1,23,-1
 1426 586 l 1,24,-1
 1288 586 l 1,25,26
 1268 388 1268 388 1175 244 c 1,27,-1
 1322 106 l 1,28,-1
 1511 106 l 1,29,-1
 1511 0 l 1,30,-1
 1168 0 l 1,31,-1
 1024 135 l 1,32,33
 844 -29 844 -29 614 -29 c 128,-1,34
 384 -29 384 -29 253 77 c 128,-1,35
 122 183 122 183 122 365 c 0,0,1
306 417.5 m 128,-1,37
 306 270 306 270 404.5 181 c 128,-1,38
 503 92 503 92 651 92 c 0,39,40
 830 92 830 92 954 200 c 1,41,-1
 434 689 l 1,42,36
 306 565 306 565 306 417.5 c 128,-1,37
EndSplineSet
Validated: 1
EndChar

StartChar: quotesingle
Encoding: 39 39 7
Width: 548
VWidth: 0
GlyphClass: 2
Flags: W
HStem: 648 555<202 346>
VStem: 202 144<648 1203>
LayerCount: 2
Fore
SplineSet
202 648 m 1,0,-1
 202 1203 l 1,1,-1
 346 1203 l 1,2,-1
 346 648 l 1,3,-1
 202 648 l 1,0,-1
EndSplineSet
Validated: 1
EndChar

StartChar: parenleft
Encoding: 40 40 8
Width: 724
VWidth: 0
GlyphClass: 2
Flags: W
VStem: 154 184<164.074 832.701>
LayerCount: 2
Fore
SplineSet
154 498 m 0,0,1
 154 1076 154 1076 570 1254 c 1,2,-1
 570 1175 l 1,3,4
 446 1090 446 1090 392 934.5 c 128,-1,5
 338 779 338 779 338 498.5 c 128,-1,6
 338 218 338 218 392 62.5 c 128,-1,7
 446 -93 446 -93 570 -178 c 1,8,-1
 570 -257 l 1,9,10
 154 -79 154 -79 154 498 c 0,0,1
EndSplineSet
Validated: 1
EndChar

StartChar: parenright
Encoding: 41 41 9
Width: 724
VWidth: 0
GlyphClass: 2
Flags: W
VStem: 386 184<163.853 832.797>
LayerCount: 2
Fore
SplineSet
154 -178 m 1,0,1
 278 -93 278 -93 332 62.5 c 128,-1,2
 386 218 386 218 386 498.5 c 128,-1,3
 386 779 386 779 332 934 c 128,-1,4
 278 1089 278 1089 154 1175 c 1,5,-1
 154 1254 l 1,6,7
 570 1077 570 1077 570 498 c 0,8,9
 570 -80 570 -80 154 -257 c 1,10,-1
 154 -178 l 1,0,1
EndSplineSet
Validated: 1
EndChar

StartChar: asterisk
Encoding: 42 42 10
Width: 851
VWidth: 0
GlyphClass: 2
Flags: W
HStem: 1205 20G<364 487>
VStem: 376 99<474 781 918 1225>
LayerCount: 2
Fore
SplineSet
33 701 m 1,0,-1
 348 849 l 1,1,-1
 33 997 l 1,2,-1
 94 1093 l 1,3,-1
 364 918 l 1,4,-1
 364 1225 l 1,5,-1
 487 1225 l 1,6,-1
 487 918 l 1,7,-1
 757 1093 l 1,8,-1
 818 997 l 1,9,-1
 503 850 l 1,10,-1
 818 701 l 1,11,-1
 757 606 l 1,12,-1
 475 781 l 1,13,-1
 475 474 l 1,14,-1
 376 474 l 1,15,-1
 376 781 l 1,16,-1
 94 606 l 1,17,-1
 33 701 l 1,0,-1
EndSplineSet
Validated: 1
EndChar

StartChar: plus
Encoding: 43 43 11
Width: 1483
VWidth: 0
GlyphClass: 2
Flags: W
HStem: 0 21G<669 814> 422 162<217 669 814 1266>
VStem: 669 145<0 422 584 1036>
LayerCount: 2
Fore
SplineSet
217 422 m 1,0,-1
 217 584 l 1,1,-1
 669 584 l 1,2,-1
 669 1036 l 1,3,-1
 814 1036 l 1,4,-1
 814 584 l 1,5,-1
 1266 584 l 1,6,-1
 1266 422 l 1,7,-1
 814 422 l 1,8,-1
 814 0 l 1,9,-1
 669 0 l 1,10,-1
 669 422 l 1,11,-1
 217 422 l 1,0,-1
EndSplineSet
Validated: 1
EndChar

StartChar: comma
Encoding: 44 44 12
Width: 596
VWidth: 0
GlyphClass: 2
Flags: W
HStem: -275 507
VStem: 282 178<-11.9507 232>
LayerCount: 2
Fore
SplineSet
136 -195 m 1,0,1
 282 -61 282 -61 282 195 c 2,2,-1
 282 232 l 1,3,-1
 460 232 l 1,4,5
 460 61 460 61 393.5 -62 c 128,-1,6
 327 -185 327 -185 200 -275 c 1,7,-1
 136 -195 l 1,0,1
EndSplineSet
Validated: 1
EndChar

StartChar: hyphen
Encoding: 45 45 13
Width: 643
VWidth: 0
GlyphClass: 2
Flags: W
HStem: 363 157<90 553>
VStem: 90 463<363 520>
LayerCount: 2
Fore
SplineSet
90 363 m 1,0,-1
 90 520 l 1,1,-1
 553 520 l 1,2,-1
 553 363 l 1,3,-1
 90 363 l 1,0,-1
EndSplineSet
Validated: 1
EndChar

StartChar: period
Encoding: 46 46 14
Width: 626
VWidth: 0
GlyphClass: 2
Flags: W
HStem: -50 268<228.098 397.902>
VStem: 192 242<-9.7771 177.262>
LayerCount: 2
Fore
SplineSet
192 83 m 256,0,1
 192 139 192 139 227 178.5 c 128,-1,2
 262 218 262 218 313 218 c 128,-1,3
 364 218 364 218 399 179 c 128,-1,4
 434 140 434 140 434 84 c 128,-1,5
 434 28 434 28 399 -11 c 128,-1,6
 364 -50 364 -50 313 -50 c 128,-1,7
 262 -50 262 -50 227 -11.5 c 128,-1,8
 192 27 192 27 192 83 c 256,0,1
EndSplineSet
Validated: 1
EndChar

StartChar: slash
Encoding: 47 47 15
Width: 611
VWidth: 0
GlyphClass: 2
Flags: W
HStem: 1183 20G<459.147 611>
VStem: 0 611
DStem2: 0 -157 145 -157 0.324146 0.946007<47.0012 1437.62>
LayerCount: 2
Fore
SplineSet
0 -157 m 1,0,-1
 466 1203 l 1,1,-1
 611 1203 l 1,2,-1
 145 -157 l 1,3,-1
 0 -157 l 1,0,-1
EndSplineSet
Validated: 1
EndChar

StartChar: zero
Encoding: 48 48 16
Width: 1292
VWidth: 0
GlyphClass: 2
Flags: W
HStem: -34 107<480.777 812.529> 1127 108<480.777 826.617>
VStem: 135 191<282.416 917.677> 966 191<279.046 922.725>
LayerCount: 2
Fore
SplineSet
135 600 m 128,-1,1
 135 900 135 900 250.5 1067.5 c 128,-1,2
 366 1235 366 1235 646.5 1235 c 128,-1,3
 927 1235 927 1235 1042 1067.5 c 128,-1,4
 1157 900 1157 900 1157 600 c 128,-1,5
 1157 300 1157 300 1042 133 c 128,-1,6
 927 -34 927 -34 646.5 -34 c 128,-1,7
 366 -34 366 -34 250.5 133 c 128,-1,0
 135 300 135 300 135 600 c 128,-1,1
326 600 m 128,-1,9
 326 332 326 332 401 202.5 c 128,-1,10
 476 73 476 73 647 73 c 256,11,12
 818 73 818 73 892 202.5 c 128,-1,13
 966 332 966 332 966 601 c 128,-1,14
 966 870 966 870 903 1002 c 1,15,16
 832 1127 832 1127 647 1127 c 256,17,18
 476 1127 476 1127 401 997.5 c 128,-1,8
 326 868 326 868 326 600 c 128,-1,9
EndSplineSet
Validated: 1
EndChar

StartChar: one
Encoding: 49 49 17
Width: 1185
VWidth: 0
GlyphClass: 2
Flags: W
HStem: 0 106<166 500 684 1024> 1215 20G<442.256 684>
VStem: 500 184<106 1096>
DStem2: 116 1102 166 982 0.944928 0.32728<7.97283 360.889>
LayerCount: 2
Fore
SplineSet
116 1102 m 1,0,1
 500 1235 l 1,2,3
 592 1235 592 1235 684 1235 c 1,4,-1
 684 106 l 1,5,-1
 1024 106 l 1,6,-1
 1024 0 l 1,7,-1
 166 0 l 1,8,-1
 166 106 l 1,9,-1
 500 106 l 1,10,11
 495 594 495 594 500 1096 c 1,12,-1
 166 982 l 1,13,-1
 116 1102 l 1,0,1
EndSplineSet
EndChar

StartChar: two
Encoding: 50 50 18
Width: 1182
VWidth: 0
GlyphClass: 2
Flags: W
HStem: 0 164<456 967> 1127 108<376.714 700.637>
VStem: 180 100<909 1034.02> 785 183<771.022 1051.07> 967 106<164 305>
LayerCount: 2
Fore
SplineSet
143 0 m 1,0,-1
 143 107 l 1,1,2
 785 620 785 620 785 888 c 0,3,4
 785 1126 785 1126 554 1127 c 0,5,6
 307 1129 307 1129 280 909 c 1,7,-1
 180 909 l 1,8,-1
 180 1112 l 1,9,10
 406 1235 406 1235 563 1235 c 5,11,12
 968 1237 968 1237 968 907 c 0,13,14
 968 721 968 721 456 164 c 1,15,-1
 967 164 l 1,16,-1
 967 305 l 1,17,-1
 1073 305 l 1,18,-1
 1073 0 l 1,19,-1
 143 0 l 1,0,-1
EndSplineSet
EndChar

StartChar: three
Encoding: 51 51 19
Width: 1158
VWidth: 0
GlyphClass: 2
Flags: W
HStem: -35 108<345.555 709.385> 590 127<479 691.727> 1127 108<376.965 704.664>
VStem: 154 101<154.694 293> 193 101<880 1044.45> 765 184<788.389 1068.64> 813 191<172.751 507.186>
LayerCount: 2
Fore
SplineSet
154 68 m 1,0,-1
 154 293 l 1,1,-1
 255 293 l 1,2,3
 255 73 255 73 539 73 c 0,4,5
 666 73 666 73 739.5 140.5 c 128,-1,6
 813 208 813 208 813 334 c 128,-1,7
 813 460 813 460 758 525 c 128,-1,8
 703 590 703 590 558 590 c 2,9,-1
 479 590 l 1,10,-1
 479 717 l 1,11,-1
 520 717 l 2,12,13
 765 717 765 717 765 927 c 0,14,15
 765 1039 765 1039 706 1083 c 128,-1,16
 647 1127 647 1127 537 1127 c 256,17,18
 294 1127 294 1127 294 880 c 1,19,-1
 193 880 l 1,20,-1
 193 1143 l 1,21,22
 400 1235 400 1235 569 1235 c 0,23,24
 735 1235 735 1235 844 1156 c 0,25,26
 949 1080 949 1080 949 956 c 0,27,28
 949 713 949 713 698 658 c 1,29,30
 859 637 859 637 931.5 548.5 c 128,-1,31
 1004 460 1004 460 1004 304.5 c 128,-1,32
 1004 149 1004 149 884 57 c 128,-1,33
 764 -35 764 -35 551 -35 c 0,34,35
 340 -35 340 -35 154 68 c 1,0,-1
EndSplineSet
Validated: 1
EndChar

StartChar: four
Encoding: 52 52 20
Width: 1300
VWidth: 0
GlyphClass: 2
Flags: W
HStem: 0 106<588 833 975 1168> 388 107<324 833 976 1204> 1183 20G<721.314 976>
VStem: 833 143<106 388 495 1108>
DStem2: 149 497 324 495 0.640612 0.767865<110.571 907.344>
LayerCount: 2
Fore
SplineSet
149 388 m 1,0,-1
 149 497 l 1,1,-1
 738 1203 l 1,2,-1
 976 1203 l 1,3,-1
 976 495 l 1,4,-1
 1204 495 l 1,5,-1
 1204 388 l 1,6,-1
 975 388 l 1,7,-1
 975 106 l 1,8,-1
 1168 106 l 1,9,-1
 1168 0 l 1,10,-1
 588 0 l 1,11,-1
 588 106 l 1,12,-1
 833 106 l 1,13,-1
 833 388 l 1,14,-1
 149 388 l 1,0,-1
324 495 m 1,15,-1
 833 495 l 1,16,-1
 833 1108 l 1,17,-1
 324 495 l 1,15,-1
EndSplineSet
Validated: 1
EndChar

StartChar: five
Encoding: 53 53 21
Width: 1151
VWidth: 0
GlyphClass: 2
Flags: W
HStem: -23 101<354.428 685.688> 683 115<363.55 687.77> 1039 164<320 880>
VStem: 166 102<158.813 296> 224 96<740 1039> 794 192<191.92 570.691>
LayerCount: 2
Fore
SplineSet
166 78 m 1,0,-1
 166 296 l 1,1,-1
 268 296 l 1,2,3
 268 190 268 190 338 134 c 128,-1,4
 408 78 408 78 531 78 c 128,-1,5
 654 78 654 78 724 156 c 128,-1,6
 794 234 794 234 794 380 c 128,-1,7
 794 526 794 526 726 604.5 c 128,-1,8
 658 683 658 683 522 683 c 128,-1,9
 386 683 386 683 302 584 c 1,10,-1
 224 584 l 1,11,-1
 224 1203 l 1,12,-1
 880 1203 l 1,13,-1
 880 1039 l 1,14,-1
 320 1039 l 1,15,-1
 320 740 l 1,16,17
 405 798 405 798 572.5 798 c 128,-1,18
 740 798 740 798 868 674 c 1,19,20
 986 558 986 558 986 375 c 0,21,22
 986 193 986 193 868 84 c 0,23,24
 752 -23 752 -23 530 -23 c 1,25,-1
 516 -23 l 2,26,27
 346 -23 346 -23 166 78 c 1,0,-1
EndSplineSet
Validated: 1
EndChar

StartChar: six
Encoding: 54 54 22
Width: 1142
VWidth: 0
GlyphClass: 2
Flags: W
HStem: -35 100<447.188 720.111> 692 100<439.98 719.765> 1134 100<472.371 768.784>
VStem: 133 187<653 879.787> 818 191<177.3 584.938> 836 102<927 1067>
LayerCount: 2
Fore
SplineSet
133 579.5 m 128,-1,1
 133 882 133 882 268 1058 c 128,-1,2
 403 1234 403 1234 649 1234 c 0,3,4
 788 1234 788 1234 938 1173 c 1,5,-1
 938 927 l 1,6,-1
 836 927 l 1,7,8
 836 1028 836 1028 778.5 1081 c 128,-1,9
 721 1134 721 1134 633 1134 c 0,10,11
 476 1134 476 1134 398 1016 c 128,-1,12
 320 898 320 898 320 653 c 1,13,14
 431 792 431 792 612.5 792 c 128,-1,15
 794 792 794 792 901.5 681.5 c 128,-1,16
 1009 571 1009 571 1009 381 c 128,-1,17
 1009 191 1009 191 891 78 c 128,-1,18
 773 -35 773 -35 567.5 -35 c 128,-1,19
 362 -35 362 -35 247.5 121 c 128,-1,0
 133 277 133 277 133 579.5 c 128,-1,1
347 384.5 m 128,-1,21
 347 233 347 233 408 149 c 128,-1,22
 469 65 469 65 582 65 c 256,23,24
 695 65 695 65 756.5 146.5 c 128,-1,25
 818 228 818 228 818 379 c 256,26,27
 818 530 818 530 757 611 c 128,-1,28
 696 692 696 692 581.5 692 c 128,-1,29
 467 692 467 692 407 614 c 128,-1,20
 347 536 347 536 347 384.5 c 128,-1,21
EndSplineSet
Validated: 1
EndChar

StartChar: seven
Encoding: 55 55 23
Width: 1164
VWidth: 0
GlyphClass: 2
Flags: W
HStem: 0 21G<370 517.01> 1039 164<266 838>
VStem: 160 106<896 1039>
DStem2: 370 0 508 0 0.410743 0.911751<56.6826 1139.54>
LayerCount: 2
Fore
SplineSet
160 896 m 1,0,-1
 160 1203 l 1,1,-1
 1004 1203 l 1,2,-1
 1004 1101 l 1,3,-1
 508 0 l 1,4,-1
 370 0 l 1,5,-1
 838 1039 l 1,6,-1
 266 1039 l 1,7,-1
 266 896 l 1,8,-1
 160 896 l 1,0,-1
EndSplineSet
Validated: 1
EndChar

StartChar: eight
Encoding: 56 56 24
Width: 1159
VWidth: 0
GlyphClass: 2
Flags: W
HStem: -34 100<423.558 735.921> 590 100<454.65 704.503> 1134 100<440 720>
VStem: 138 191<161.631 489.479> 182 184<765.525 1059.69> 794 184<766.772 1060.02> 830 191<161.624 489.143>
LayerCount: 2
Fore
SplineSet
138 324 m 0,0,1
 138 454 138 454 221 538 c 128,-1,2
 304 622 304 622 454 641 c 1,3,4
 322 663 322 663 252 734.5 c 128,-1,5
 182 806 182 806 182 917 c 0,6,7
 182 1064 182 1064 288 1149 c 128,-1,8
 394 1234 394 1234 580 1234 c 256,9,10
 766 1234 766 1234 872 1149.5 c 128,-1,11
 978 1065 978 1065 978 917 c 0,12,13
 978 806 978 806 907 734.5 c 128,-1,14
 836 663 836 663 706 641 c 1,15,16
 855 622 855 622 938 538 c 128,-1,17
 1021 454 1021 454 1021 324 c 0,18,19
 1021 152 1021 152 906.5 59 c 128,-1,20
 792 -34 792 -34 580 -34 c 128,-1,21
 368 -34 368 -34 253 59 c 128,-1,22
 138 152 138 152 138 324 c 0,0,1
329 328 m 128,-1,24
 329 203 329 203 394.5 134.5 c 128,-1,25
 460 66 460 66 580 66 c 256,26,27
 699 66 699 66 764.5 134.5 c 128,-1,28
 830 203 830 203 830 327.5 c 128,-1,29
 830 452 830 452 764 521 c 128,-1,30
 698 590 698 590 580 590 c 256,31,32
 461 590 461 590 395 521.5 c 128,-1,23
 329 453 329 453 329 328 c 128,-1,24
366 912 m 128,-1,34
 366 807 366 807 423 748.5 c 128,-1,35
 480 690 480 690 580 690 c 128,-1,36
 680 690 680 690 737 748.5 c 128,-1,37
 794 807 794 807 794 912 c 128,-1,38
 794 1017 794 1017 737 1075.5 c 128,-1,39
 680 1134 680 1134 580 1134 c 128,-1,40
 480 1134 480 1134 423 1075.5 c 128,-1,33
 366 1017 366 1017 366 912 c 128,-1,34
EndSplineSet
Validated: 1
EndChar

StartChar: nine
Encoding: 57 57 25
Width: 1142
VWidth: 0
GlyphClass: 2
Flags: W
HStem: -34 100<344.055 649.154> 27 211<196 297> 464 99<422.377 699.558> 1134 100<422.106 696.546>
VStem: 134 191<667.882 1026.33> 196 101<111.398 238> 822 186<320.404 603>
LayerCount: 2
Fore
SplineSet
134 847 m 128,-1,1
 134 1009 134 1009 252 1121.5 c 128,-1,2
 370 1234 370 1234 575 1234 c 128,-1,3
 780 1234 780 1234 894 1079.5 c 128,-1,4
 1008 925 1008 925 1008 621.5 c 128,-1,5
 1008 318 1008 318 873 142 c 128,-1,6
 738 -34 738 -34 494 -34 c 0,7,8
 346 -34 346 -34 196 27 c 1,9,-1
 196 238 l 1,10,-1
 297 238 l 1,11,12
 297 137 297 137 354.5 101.5 c 128,-1,13
 412 66 412 66 500 66 c 0,14,15
 657 66 657 66 739.5 211.5 c 128,-1,16
 822 357 822 357 822 603 c 1,17,18
 711 464 711 464 529.5 464 c 128,-1,19
 348 464 348 464 241 574.5 c 128,-1,0
 134 685 134 685 134 847 c 128,-1,1
325 821 m 256,20,21
 325 725 325 725 385.5 644 c 128,-1,22
 446 563 446 563 560 563 c 256,23,24
 674 563 674 563 735 641.5 c 128,-1,25
 796 720 796 720 796 843.5 c 128,-1,26
 796 967 796 967 735 1050.5 c 128,-1,27
 674 1134 674 1134 560 1134 c 128,-1,28
 446 1134 446 1134 385.5 1053.5 c 128,-1,29
 325 973 325 973 325 821 c 256,20,21
EndSplineSet
Validated: 1
EndChar

StartChar: colon
Encoding: 58 58 26
Width: 665
VWidth: 0
GlyphClass: 2
Flags: W
HStem: -50 268<248.128 417.418> 475 267<248.129 417.933>
VStem: 212 241<-10.2926 176.746 514.707 701.777>
LayerCount: 2
Fore
SplineSet
212 83 m 256,0,1
 212 138 212 138 247 178 c 0,2,3
 283 218 283 218 333 218 c 256,4,5
 384 218 384 218 418.5 179 c 128,-1,6
 453 140 453 140 453 83 c 256,7,8
 453 26 453 26 419 -12 c 128,-1,9
 385 -50 385 -50 333 -50 c 256,10,11
 281 -50 281 -50 246.5 -11.5 c 128,-1,12
 212 27 212 27 212 83 c 256,0,1
212 608 m 256,13,14
 212 664 212 664 247 703 c 0,15,16
 283 742 283 742 334 742 c 128,-1,17
 385 742 385 742 419 704 c 128,-1,18
 453 666 453 666 453 608 c 256,19,20
 453 551 453 551 419 513 c 128,-1,21
 385 475 385 475 333 475 c 128,-1,22
 281 475 281 475 246.5 513.5 c 128,-1,23
 212 552 212 552 212 608 c 256,13,14
EndSplineSet
Validated: 1
EndChar

StartChar: semicolon
Encoding: 59 59 27
Width: 639
VWidth: 0
GlyphClass: 2
Flags: W
HStem: 475 267<290.063 461.903>
VStem: 251 247<514.707 701.777> 294 178<-42.155 156>
LayerCount: 2
Fore
SplineSet
140 -187 m 1,0,1
 294 -80 294 -80 294 120 c 2,2,-1
 294 156 l 1,3,-1
 472 156 l 1,4,5
 472 18 472 18 404 -80.5 c 128,-1,6
 336 -179 336 -179 206 -252 c 1,7,-1
 140 -187 l 1,0,1
258 608 m 256,8,9
 259 609 259 609 258 611 c 0,10,11
 258 663 258 663 294 702.5 c 128,-1,12
 330 742 330 742 378 742 c 256,13,14
 429 742 429 742 463.5 703 c 128,-1,15
 498 664 498 664 498 608 c 128,-1,16
 498 552 498 552 463 513.5 c 128,-1,17
 428 475 428 475 378 475 c 256,18,19
 377 475 377 475 376 475 c 0,20,21
 329 475 329 475 294 514 c 0,22,23
 251 563 251 563 251 590 c 0,24,25
 251 601 251 601 258 608 c 256,8,9
EndSplineSet
Validated: 1
EndChar

StartChar: less
Encoding: 60 60 28
Width: 1466
VWidth: 0
GlyphClass: 2
Flags: W
DStem2: 217 600 456 516 0.939873 0.341524<195.942 1039.62> 456 516 217 435 0.939873 -0.341524<0 843.337>
LayerCount: 2
Fore
SplineSet
217 435 m 1,0,-1
 217 600 l 1,1,-1
 1249 975 l 1,2,-1
 1249 804 l 1,3,-1
 456 516 l 1,4,-1
 1249 229 l 1,5,-1
 1249 60 l 1,6,-1
 217 435 l 1,0,-1
EndSplineSet
Validated: 1
EndChar

StartChar: equal
Encoding: 61 61 29
Width: 1466
VWidth: 0
GlyphClass: 2
Flags: W
HStem: 272 161<217 1249> 601 161<217 1249>
LayerCount: 2
Fore
SplineSet
217 272 m 1,0,-1
 217 433 l 1,1,-1
 1249 433 l 1,2,-1
 1249 272 l 1,3,-1
 217 272 l 1,0,-1
217 601 m 1,4,-1
 217 762 l 1,5,-1
 1249 762 l 1,6,-1
 1249 601 l 1,7,-1
 217 601 l 1,4,-1
EndSplineSet
Validated: 1
EndChar

StartChar: greater
Encoding: 62 62 30
Width: 1466
VWidth: 0
GlyphClass: 2
Flags: W
DStem2: 217 974 217 807 0.940165 -0.340719<56.9 904.08> 217 228 217 60 0.939873 0.341524<0 846.839>
LayerCount: 2
Fore
SplineSet
217 60 m 1,0,-1
 217 228 l 1,1,-1
 1013 517 l 1,2,-1
 217 807 l 1,3,-1
 217 974 l 1,4,-1
 1249 600 l 1,5,-1
 1249 435 l 1,6,-1
 217 60 l 1,0,-1
EndSplineSet
Validated: 1
EndChar

StartChar: question
Encoding: 63 63 31
Width: 998
VWidth: 0
GlyphClass: 2
Flags: W
HStem: -50 268<348.098 517.387> 937 203<119 216.992> 1134 100<296.346 602.894>
VStem: 119 88<937 1045.07> 312 242<-9.7771 177.262> 377 111<341 546.16> 688 191<749.896 1051.09>
LayerCount: 2
Fore
SplineSet
119 937 m 1,0,-1
 119 1140 l 1,1,2
 307 1234 307 1234 479.5 1234 c 128,-1,3
 652 1234 652 1234 765.5 1148.5 c 128,-1,4
 879 1063 879 1063 879 917 c 0,5,6
 879 620 879 620 488 538 c 1,7,-1
 488 341 l 1,8,-1
 377 341 l 1,9,-1
 377 595 l 1,10,11
 688 661 688 661 688 906 c 0,12,13
 688 1012 688 1012 624 1073 c 128,-1,14
 560 1134 560 1134 456 1134 c 0,15,16
 243 1134 243 1134 207 937 c 1,17,-1
 119 937 l 1,0,-1
312 83 m 256,18,19
 312 139 312 139 347 178.5 c 128,-1,20
 382 218 382 218 432.5 218 c 128,-1,21
 483 218 483 218 518.5 179 c 128,-1,22
 554 140 554 140 554 84 c 128,-1,23
 554 28 554 28 518.5 -11 c 128,-1,24
 483 -50 483 -50 432 -50 c 128,-1,25
 381 -50 381 -50 346.5 -11.5 c 128,-1,26
 312 27 312 27 312 83 c 256,18,19
EndSplineSet
Validated: 1
EndChar

StartChar: at
Encoding: 64 64 32
Width: 1763
VWidth: 0
GlyphClass: 2
Flags: W
HStem: -298 105<682.548 1157.38> 57 118<771.522 1006.59> 689 118<770.939 1007.54> 1066 106<690.055 1184.05>
VStem: 140 154<184.055 682.37> 533 161<256.609 608.231> 1108 141<167 210 251.18 613.438 654 787> 1537 86<347.799 740.567>
LayerCount: 2
Fore
SplineSet
140 437 m 0,0,1
 140 746 140 746 360 958 c 0,2,3
 467 1061 467 1061 611.5 1116.5 c 128,-1,4
 756 1172 756 1172 927 1172 c 128,-1,5
 1098 1172 1098 1172 1246 1105 c 128,-1,6
 1394 1038 1394 1038 1494 913 c 0,7,8
 1623 754 1623 754 1623 543.5 c 128,-1,9
 1623 333 1623 333 1484.5 206.5 c 128,-1,10
 1346 80 1346 80 1108 80 c 1,11,-1
 1108 210 l 1,12,13
 1011 57 1011 57 863 57 c 128,-1,14
 715 57 715 57 624 161 c 128,-1,15
 533 265 533 265 533 432 c 256,16,17
 533 599 533 599 623.5 703 c 128,-1,18
 714 807 714 807 863 807 c 128,-1,19
 1012 807 1012 807 1108 654 c 1,20,-1
 1108 787 l 1,21,-1
 1249 787 l 1,22,-1
 1249 167 l 1,23,24
 1386 196 1386 196 1461.5 294.5 c 128,-1,25
 1537 393 1537 393 1537 541 c 0,26,27
 1537 718 1537 718 1425 850 c 0,28,29
 1337 955 1337 955 1211 1010.5 c 128,-1,30
 1085 1066 1085 1066 937 1066 c 0,31,32
 786 1066 786 1066 632.5 998.5 c 128,-1,33
 479 931 479 931 386.5 782 c 128,-1,34
 294 633 294 633 294 437 c 0,35,36
 294 168 294 168 456 0 c 0,37,38
 643 -193 643 -193 940 -193 c 0,39,40
 1153 -193 1153 -193 1313 -81 c 1,41,-1
 1356 -132 l 1,42,43
 1174 -298 1174 -298 898 -298 c 0,44,45
 744 -298 744 -298 604 -244 c 0,46,47
 466 -190 466 -190 359 -87 c 0,48,49
 140 122 140 122 140 437 c 0,0,1
694 431.5 m 128,-1,51
 694 309 694 309 749 242 c 128,-1,52
 804 175 804 175 899 175 c 128,-1,53
 994 175 994 175 1051 235.5 c 128,-1,54
 1108 296 1108 296 1108 392 c 2,55,-1
 1108 473 l 2,56,57
 1108 569 1108 569 1050.5 629 c 128,-1,58
 993 689 993 689 898 689 c 128,-1,59
 803 689 803 689 748.5 621.5 c 128,-1,50
 694 554 694 554 694 431.5 c 128,-1,51
EndSplineSet
Validated: 1
EndChar

StartChar: A
Encoding: 65 65 33
Width: 1264
VWidth: 0
GlyphClass: 2
Flags: W
HStem: 0 106<-16 89 205 329 793 949 1162 1280> 336 108<344 802> 1183 20G<531.778 692.715>
DStem2: 89 106 205 106 0.380241 0.924887<44.1079 292.575 409.573 995.276> 684 1203 566 986 0.399459 -0.916751<151.799 742.95 860.734 1111.53>
LayerCount: 2
Fore
SplineSet
-16 0 m 1,0,-1
 -16 106 l 1,1,-1
 89 106 l 1,2,-1
 540 1203 l 1,3,-1
 684 1203 l 1,4,-1
 1162 106 l 1,5,-1
 1280 106 l 1,6,-1
 1280 0 l 1,7,-1
 793 0 l 1,8,-1
 793 106 l 1,9,-1
 949 106 l 1,10,-1
 849 336 l 1,11,-1
 299 336 l 1,12,-1
 205 106 l 1,13,-1
 329 106 l 1,14,-1
 329 0 l 1,15,-1
 -16 0 l 1,0,-1
344 444 m 1,16,-1
 802 444 l 1,17,-1
 566 986 l 1,18,-1
 344 444 l 1,16,-1
EndSplineSet
Validated: 1
EndChar

StartChar: B
Encoding: 66 66 34
Width: 1315
VWidth: 0
GlyphClass: 2
Flags: W
HStem: 0 106<119 272 456 893.411> 596 107<456 847.606> 1096 107<119 272 456 853.913>
VStem: 272 184<106 596 703 1096> 920 208<766.524 1030.96> 989 207<196.616 505.908>
LayerCount: 2
Fore
SplineSet
119 0 m 1,0,-1
 119 106 l 1,1,-1
 272 106 l 1,2,-1
 272 1096 l 1,3,-1
 119 1096 l 1,4,-1
 119 1203 l 1,5,-1
 743 1203 l 2,6,7
 1128 1203 1128 1203 1128 905 c 0,8,9
 1128 798 1128 798 1058 734 c 128,-1,10
 988 670 988 670 853 656 c 1,11,12
 1021 637 1021 637 1108.5 558 c 128,-1,13
 1196 479 1196 479 1196 347 c 0,14,15
 1196 168 1196 168 1077 84 c 128,-1,16
 958 0 958 0 706 0 c 2,17,-1
 119 0 l 1,0,-1
456 106 m 1,18,-1
 703 106 l 2,19,20
 989 106 989 106 989 352 c 1,21,22
 989 596 989 596 703 596 c 2,23,-1
 456 596 l 1,24,-1
 456 106 l 1,18,-1
456 703 m 1,25,-1
 663 703 l 2,26,27
 797 703 797 703 858.5 750.5 c 128,-1,28
 920 798 920 798 920 900.5 c 128,-1,29
 920 1003 920 1003 858.5 1049.5 c 128,-1,30
 797 1096 797 1096 663 1096 c 2,31,-1
 456 1096 l 1,32,-1
 456 703 l 1,25,-1
EndSplineSet
Validated: 1
EndChar

StartChar: C
Encoding: 67 67 35
Width: 1348
VWidth: 0
GlyphClass: 2
Flags: W
HStem: -35 108<526.547 908.489> 1127 108<523.144 926.605>
VStem: 119 207<342.273 863.667> 1063 166<157 323> 1090 102<838 966.625>
LayerCount: 2
Fore
SplineSet
119 596.5 m 128,-1,1
 119 885 119 885 286.5 1060 c 128,-1,2
 454 1235 454 1235 728 1235 c 0,3,4
 930 1235 930 1235 1192 1110 c 1,5,-1
 1192 838 l 1,6,-1
 1090 838 l 1,7,8
 1060 986 1060 986 970 1056.5 c 128,-1,9
 880 1127 880 1127 702.5 1127 c 128,-1,10
 525 1127 525 1127 425.5 993 c 128,-1,11
 326 859 326 859 326 600 c 128,-1,12
 326 341 326 341 425 207 c 128,-1,13
 524 73 524 73 716 73 c 0,14,15
 984 73 984 73 1063 323 c 1,16,-1
 1229 323 l 1,17,18
 1118 -35 1118 -35 715 -35 c 0,19,20
 468 -35 468 -35 304 127 c 1,21,0
 119 308 119 308 119 596.5 c 128,-1,1
EndSplineSet
Validated: 1
EndChar

StartChar: D
Encoding: 68 68 36
Width: 1410
VWidth: 0
GlyphClass: 2
Flags: W
HStem: 0 106<116 268 452 833.531> 1096 107<116 268 452 842.447>
VStem: 268 184<106 1096> 1086 208<357.13 847.9>
LayerCount: 2
Fore
SplineSet
116 0 m 1,0,-1
 116 106 l 1,1,-1
 268 106 l 1,2,-1
 268 1096 l 1,3,-1
 116 1096 l 1,4,-1
 116 1203 l 1,5,-1
 612 1203 l 2,6,7
 935 1203 935 1203 1114.5 1044.5 c 128,-1,8
 1294 886 1294 886 1294 602.5 c 128,-1,9
 1294 319 1294 319 1114 159.5 c 128,-1,10
 934 0 934 0 612 0 c 2,11,-1
 116 0 l 1,0,-1
452 106 m 1,12,-1
 602 106 l 2,13,14
 836 106 836 106 961 234.5 c 128,-1,15
 1086 363 1086 363 1086 603 c 256,16,17
 1086 843 1086 843 962 969.5 c 128,-1,18
 838 1096 838 1096 602 1096 c 2,19,-1
 452 1096 l 1,20,-1
 452 106 l 1,12,-1
EndSplineSet
Validated: 1
EndChar

StartChar: E
Encoding: 69 69 37
Width: 1305
VWidth: 0
GlyphClass: 2
Flags: W
HStem: 0 123<476 1056> 0 106<138 292> 587 123<476 870> 1080 123<476 1042> 1096 107<138 292>
VStem: 292 184<123 587 710 1080> 870 111<448 587 710 848> 1042 110<925 1080> 1056 111<123 278>
LayerCount: 2
Fore
SplineSet
138 0 m 1,0,-1
 138 106 l 1,1,-1
 292 106 l 1,2,-1
 292 1096 l 1,3,-1
 138 1096 l 1,4,-1
 138 1203 l 1,5,-1
 1152 1203 l 1,6,-1
 1152 925 l 1,7,-1
 1042 925 l 1,8,-1
 1042 1080 l 1,9,-1
 476 1080 l 1,10,-1
 476 710 l 1,11,-1
 870 710 l 1,12,-1
 870 848 l 1,13,-1
 981 848 l 1,14,-1
 981 448 l 1,15,-1
 870 448 l 1,16,-1
 870 587 l 1,17,-1
 476 587 l 1,18,-1
 476 123 l 1,19,-1
 1056 123 l 1,20,-1
 1056 278 l 1,21,-1
 1167 278 l 1,22,-1
 1167 0 l 1,23,-1
 138 0 l 1,0,-1
EndSplineSet
Validated: 1
EndChar

StartChar: F
Encoding: 70 70 38
Width: 1227
VWidth: 0
GlyphClass: 2
Flags: W
HStem: 0 106<100 252 436 628> 586 123<436 846> 1080 123<436 1016> 1096 107<100 252>
VStem: 252 184<106 586 709 1080> 846 111<446 586 709 848> 1016 111<925 1080>
LayerCount: 2
Fore
SplineSet
100 0 m 1,0,-1
 100 106 l 1,1,-1
 252 106 l 1,2,-1
 252 1096 l 1,3,-1
 100 1096 l 1,4,-1
 100 1203 l 1,5,-1
 1127 1203 l 1,6,-1
 1127 925 l 1,7,-1
 1016 925 l 1,8,-1
 1016 1080 l 1,9,-1
 436 1080 l 1,10,-1
 436 709 l 1,11,-1
 846 709 l 1,12,-1
 846 848 l 1,13,-1
 957 848 l 1,14,-1
 957 446 l 1,15,-1
 846 446 l 1,16,-1
 846 586 l 1,17,-1
 436 586 l 1,18,-1
 436 106 l 1,19,-1
 628 106 l 1,20,-1
 628 0 l 1,21,-1
 100 0 l 1,0,-1
EndSplineSet
Validated: 1
EndChar

StartChar: G
Encoding: 71 71 39
Width: 1414
VWidth: 0
GlyphClass: 2
Flags: W
HStem: -35 108<556.596 999.232> 452 108<866 1092> 1127 108<558.477 966.845>
VStem: 138 207<338.048 863.98> 1092 184<135.775 452> 1127 101<843 969.125>
LayerCount: 2
Fore
SplineSet
138 601 m 128,-1,1
 138 891 138 891 307.5 1063 c 128,-1,2
 477 1235 477 1235 765 1235 c 0,3,4
 975 1235 975 1235 1228 1118 c 1,5,-1
 1228 843 l 1,6,-1
 1127 843 l 1,7,8
 1099 988 1099 988 1009 1057.5 c 128,-1,9
 919 1127 919 1127 759 1127 c 0,10,11
 345 1127 345 1127 345 600 c 0,12,13
 345 340 345 340 450.5 206.5 c 128,-1,14
 556 73 556 73 748 73 c 128,-1,15
 940 73 940 73 1092 158 c 1,16,-1
 1092 452 l 1,17,-1
 866 452 l 1,18,-1
 866 560 l 1,19,-1
 1276 560 l 1,20,-1
 1276 109 l 1,21,22
 1056 -35 1056 -35 769 -35 c 0,23,24
 765 -35 765 -35 761 -35 c 0,25,26
 477 -35 477 -35 307.5 138 c 128,-1,0
 138 311 138 311 138 601 c 128,-1,1
EndSplineSet
Validated: 1
EndChar

StartChar: H
Encoding: 72 72 40
Width: 1523
VWidth: 0
GlyphClass: 2
Flags: W
HStem: 0 106<113 266 450 603 920 1073 1257 1410> 588 123<450 1073> 1096 107<113 266 450 603 920 1073 1257 1410>
VStem: 266 184<106 588 711 1096> 1073 184<106 588 711 1096>
LayerCount: 2
Fore
SplineSet
113 0 m 1,0,-1
 113 106 l 1,1,-1
 266 106 l 1,2,-1
 266 1096 l 1,3,-1
 113 1096 l 1,4,-1
 113 1203 l 1,5,-1
 603 1203 l 1,6,-1
 603 1096 l 1,7,-1
 450 1096 l 1,8,-1
 450 711 l 1,9,-1
 1073 711 l 1,10,-1
 1073 1096 l 1,11,-1
 920 1096 l 1,12,-1
 920 1203 l 1,13,-1
 1410 1203 l 1,14,-1
 1410 1096 l 1,15,-1
 1257 1096 l 1,16,-1
 1257 106 l 1,17,-1
 1410 106 l 1,18,-1
 1410 0 l 1,19,-1
 920 0 l 1,20,-1
 920 106 l 1,21,-1
 1073 106 l 1,22,-1
 1073 588 l 1,23,-1
 450 588 l 1,24,-1
 450 106 l 1,25,-1
 603 106 l 1,26,-1
 603 0 l 1,27,-1
 113 0 l 1,0,-1
EndSplineSet
Validated: 1
EndChar

StartChar: I
Encoding: 73 73 41
Width: 716
VWidth: 0
GlyphClass: 2
Flags: W
HStem: 0 106<113 266 450 603> 1096 107<113 266 450 603>
VStem: 266 184<106 1096>
LayerCount: 2
Fore
SplineSet
113 0 m 1,0,-1
 113 106 l 1,1,-1
 266 106 l 1,2,-1
 266 1096 l 1,3,-1
 113 1096 l 1,4,-1
 113 1203 l 1,5,-1
 603 1203 l 1,6,-1
 603 1096 l 1,7,-1
 450 1096 l 1,8,-1
 450 106 l 1,9,-1
 603 106 l 1,10,-1
 603 0 l 1,11,-1
 113 0 l 1,0,-1
EndSplineSet
Validated: 1
EndChar

StartChar: J
Encoding: 74 74 42
Width: 678
VWidth: 0
GlyphClass: 2
Flags: W
HStem: -343 107<104.341 330.644> -275 235<-39 61.585> 1096 107<193 380 564 717>
VStem: -39 103<-195.757 -40> 380 184<-186.284 1096>
LayerCount: 2
Fore
SplineSet
-39 -40 m 1,0,-1
 64 -40 l 1,1,2
 64 -236 64 -236 208 -236 c 0,3,4
 304 -236 304 -236 342 -177.5 c 128,-1,5
 380 -119 380 -119 380 51 c 2,6,-1
 380 1096 l 1,7,-1
 193 1096 l 1,8,-1
 193 1203 l 1,9,-1
 717 1203 l 1,10,-1
 717 1096 l 1,11,-1
 564 1096 l 1,12,-1
 564 28 l 2,13,14
 564 -168 564 -168 480 -255.5 c 128,-1,15
 396 -343 396 -343 208 -343 c 0,16,17
 85 -343 85 -343 -39 -275 c 1,18,-1
 -39 -40 l 1,0,-1
EndSplineSet
Validated: 1
EndChar

StartChar: K
Encoding: 75 75 43
Width: 1325
VWidth: 0
GlyphClass: 2
Flags: W
HStem: 0 106<40 194 378 540 1148 1284> 1096 107<40 194 378 540 788 908 1076 1210>
VStem: 194 184<106 550 673 1096>
DStem2: 378 673 534 664 0.781994 0.623286<116.381 678.107> 534 664 378 550 0.740049 -0.672553<0 778.117>
LayerCount: 2
Fore
SplineSet
40 0 m 1,0,-1
 40 106 l 1,1,-1
 194 106 l 1,2,-1
 194 1096 l 1,3,-1
 40 1096 l 1,4,-1
 40 1203 l 1,5,-1
 540 1203 l 1,6,-1
 540 1096 l 1,7,-1
 378 1096 l 1,8,-1
 378 673 l 1,9,-1
 908 1096 l 1,10,-1
 788 1096 l 1,11,-1
 788 1203 l 1,12,-1
 1210 1203 l 1,13,-1
 1210 1096 l 1,14,-1
 1076 1096 l 1,15,-1
 534 664 l 1,16,-1
 1148 106 l 1,17,-1
 1284 106 l 1,18,-1
 1284 0 l 1,19,-1
 982 0 l 1,20,-1
 378 550 l 1,21,-1
 378 106 l 1,22,-1
 540 106 l 1,23,-1
 540 0 l 1,24,-1
 40 0 l 1,0,-1
EndSplineSet
Validated: 1
EndChar

StartChar: L
Encoding: 76 76 44
Width: 1159
VWidth: 0
GlyphClass: 2
Flags: W
HStem: 0 123<418 967> 0 106<81 234> 1096 107<81 234 418 571>
VStem: 234 184<123 1096> 967 111<123 316>
LayerCount: 2
Fore
SplineSet
81 0 m 1,0,-1
 81 106 l 1,1,-1
 234 106 l 1,2,-1
 234 1096 l 1,3,-1
 81 1096 l 1,4,-1
 81 1203 l 1,5,-1
 571 1203 l 1,6,-1
 571 1096 l 1,7,-1
 418 1096 l 1,8,-1
 418 123 l 1,9,-1
 967 123 l 1,10,-1
 967 316 l 1,11,-1
 1078 316 l 1,12,-1
 1078 0 l 1,13,-1
 81 0 l 1,0,-1
EndSplineSet
Validated: 1
EndChar

StartChar: M
Encoding: 77 77 45
Width: 1822
VWidth: 0
GlyphClass: 2
Flags: W
HStem: 0 106<112 265 376 539 1212 1375 1559 1713> 1096 107<103 265 1559 1719>
VStem: 265 111<106 990> 1375 184<106 958>
DStem2: 472 1203 376 990 0.48018 -0.87717<140.74 949.645> 928 370 929 168 0.491403 0.870933<0 731.765>
LayerCount: 2
Fore
SplineSet
103 1096 m 1,0,-1
 103 1203 l 1,1,-1
 472 1203 l 1,2,-1
 928 370 l 1,3,-1
 1398 1203 l 1,4,-1
 1719 1203 l 1,5,-1
 1719 1096 l 1,6,-1
 1559 1096 l 1,7,-1
 1559 106 l 1,8,-1
 1713 106 l 1,9,-1
 1713 0 l 1,10,-1
 1212 0 l 1,11,-1
 1212 106 l 1,12,-1
 1375 106 l 1,13,-1
 1375 958 l 1,14,-1
 929 168 l 1,15,-1
 825 168 l 1,16,-1
 376 990 l 1,17,-1
 376 106 l 1,18,-1
 539 106 l 1,19,-1
 539 0 l 1,20,-1
 112 0 l 1,21,-1
 112 106 l 1,22,-1
 265 106 l 1,23,-1
 265 1096 l 1,24,-1
 103 1096 l 1,0,-1
EndSplineSet
Validated: 1
EndChar

StartChar: N
Encoding: 78 78 46
Width: 1550
VWidth: 0
GlyphClass: 2
Flags: W
HStem: -23 21G<1180.22 1293> 0 106<95 257 368 540> 1096 107<95 257 1011 1182 1293 1455>
VStem: 257 111<106 965> 1182 111<295 1096>
DStem2: 421 1203 368 965 0.642774 -0.766056<148.254 1184.73>
LayerCount: 2
Fore
SplineSet
95 0 m 1,0,-1
 95 106 l 1,1,-1
 257 106 l 1,2,-1
 257 1096 l 1,3,-1
 95 1096 l 1,4,-1
 95 1203 l 1,5,-1
 421 1203 l 1,6,-1
 1182 295 l 1,7,-1
 1182 1096 l 1,8,-1
 1011 1096 l 1,9,-1
 1011 1203 l 1,10,-1
 1455 1203 l 1,11,-1
 1455 1096 l 1,12,-1
 1293 1096 l 1,13,-1
 1293 -23 l 1,14,-1
 1197 -23 l 1,15,-1
 368 965 l 1,16,-1
 368 106 l 1,17,-1
 540 106 l 1,18,-1
 540 0 l 1,19,-1
 95 0 l 1,0,-1
EndSplineSet
Validated: 1
EndChar

StartChar: O
Encoding: 79 79 47
Width: 1442
VWidth: 0
GlyphClass: 2
Flags: W
HStem: -34 107<524.083 914.857> 1127 109<526.037 913.989>
VStem: 114 207<344.208 855.292> 1120 208<341.834 866.575>
LayerCount: 2
Fore
SplineSet
114 600 m 256,0,1
 114 890 114 890 300 1073 c 0,2,3
 466 1236 466 1236 730 1236 c 128,-1,4
 994 1236 994 1236 1161 1062 c 128,-1,5
 1328 888 1328 888 1328 600 c 0,6,7
 1328 307 1328 307 1142 127 c 0,8,9
 976 -34 976 -34 722 -34 c 0,10,11
 464 -34 464 -34 300 127 c 1,12,13
 114 308 114 308 114 600 c 256,0,1
321 600 m 128,-1,15
 321 73 321 73 720 73 c 0,16,17
 917 73 917 73 1018.5 206 c 128,-1,18
 1120 339 1120 339 1120 600 c 0,19,20
 1120 1127 1120 1127 720.5 1127 c 132,-1,14
 321 1127 321 1127 321 600 c 128,-1,15
EndSplineSet
Validated: 1
EndChar

StartChar: P
Encoding: 80 80 48
Width: 1189
VWidth: 0
GlyphClass: 2
Flags: W
HStem: 0 106<93 246 430 616> 516 108<430 805.321> 1096 107<93 246 430 802.526>
VStem: 246 184<106 516 624 1096> 888 208<706.056 1014.29>
LayerCount: 2
Fore
SplineSet
93 0 m 1,0,-1
 93 106 l 1,1,-1
 246 106 l 1,2,-1
 246 1096 l 1,3,-1
 93 1096 l 1,4,-1
 93 1203 l 1,5,-1
 687 1203 l 2,6,7
 876 1203 876 1203 986 1110.5 c 128,-1,8
 1096 1018 1096 1018 1096 860.5 c 128,-1,9
 1096 703 1096 703 987 609.5 c 128,-1,10
 878 516 878 516 691 516 c 2,11,-1
 430 516 l 1,12,-1
 430 106 l 1,13,-1
 616 106 l 1,14,-1
 616 0 l 1,15,-1
 93 0 l 1,0,-1
430 624 m 1,16,-1
 642 624 l 2,17,18
 762 624 762 624 825 684.5 c 128,-1,19
 888 745 888 745 888 860 c 128,-1,20
 888 975 888 975 825 1035.5 c 128,-1,21
 762 1096 762 1096 642 1096 c 2,22,-1
 430 1096 l 1,23,-1
 430 624 l 1,16,-1
EndSplineSet
Validated: 1
EndChar

StartChar: Q
Encoding: 81 81 49
Width: 1442
VWidth: 0
GlyphClass: 2
Flags: W
HStem: -283 186<929.219 1134> -35 108<527.124 763.827> 1127 109<526.037 913.989>
VStem: 114 207<336.458 855.292> 1120 208<340.973 867.009>
LayerCount: 2
Fore
SplineSet
114 600 m 128,-1,1
 114 890 114 890 300 1073 c 0,2,3
 466 1236 466 1236 730 1236 c 128,-1,4
 994 1236 994 1236 1161 1062.5 c 128,-1,5
 1328 889 1328 889 1328 601 c 0,6,7
 1328 359 1328 359 1201 194.5 c 128,-1,8
 1074 30 1074 30 850 -18 c 1,9,10
 938 -97 938 -97 1108 -97 c 2,11,-1
 1134 -97 l 1,12,-1
 1134 -283 l 1,13,14
 1131 -283 l 0,15,16
 860 -283 860 -283 740 -35 c 1,17,18
 453 -35 453 -35 283.5 137.5 c 128,-1,0
 114 310 114 310 114 600 c 128,-1,1
321 600 m 128,-1,20
 321 73 321 73 720 73 c 0,21,22
 917 73 917 73 1018.5 206 c 128,-1,23
 1120 339 1120 339 1120 600 c 0,24,25
 1120 1127 1120 1127 720.5 1127 c 128,-1,19
 321 1127 321 1127 321 600 c 128,-1,20
EndSplineSet
Validated: 1
EndChar

StartChar: R
Encoding: 82 82 50
Width: 1303
VWidth: 0
GlyphClass: 2
Flags: W
HStem: 0 106<32 184 368 540 1124 1272> 548 108<368 667.101> 1096 107<32 184 368 779.324>
VStem: 184 184<106 548 656 1096> 850 207<726.178 1026.96>
DStem2: 944 439 766 383 0.477244 -0.878771<-170.1 378.535>
LayerCount: 2
Fore
SplineSet
32 0 m 1,0,-1
 32 106 l 1,1,-1
 184 106 l 1,2,-1
 184 1096 l 1,3,-1
 32 1096 l 1,4,-1
 32 1203 l 1,5,-1
 672 1203 l 2,6,7
 857 1203 857 1203 957 1118.5 c 128,-1,8
 1057 1034 1057 1034 1057 880 c 0,9,10
 1057 630 1057 630 756 594 c 1,11,12
 876 565 876 565 944 439 c 1,13,-1
 1124 106 l 1,14,-1
 1272 106 l 1,15,-1
 1272 0 l 1,16,-1
 974 0 l 1,17,-1
 766 383 l 1,18,19
 713 487 713 487 668.5 517.5 c 128,-1,20
 624 548 624 548 546 548 c 2,21,-1
 368 548 l 1,22,-1
 368 106 l 1,23,-1
 540 106 l 1,24,-1
 540 0 l 1,25,-1
 32 0 l 1,0,-1
368 656 m 1,26,-1
 610 656 l 2,27,28
 733 656 733 656 791.5 710 c 128,-1,29
 850 764 850 764 850 876 c 256,30,31
 850 989 850 989 791 1042.5 c 128,-1,32
 732 1096 732 1096 610 1096 c 2,33,-1
 368 1096 l 1,34,-1
 368 656 l 1,26,-1
EndSplineSet
Validated: 1
EndChar

StartChar: S
Encoding: 83 83 51
Width: 1231
VWidth: 0
GlyphClass: 2
Flags: W
HStem: -35 108<388.124 798.053> 1127 108<410.737 797.074>
VStem: 161 176<818.343 1060.12> 177 104<174.094 336> 889 181<154.484 401.754> 900 102<891 1027.82>
DStem2: 599 722 493 536 0.95898 -0.283472<-227.03 322.701>
LayerCount: 2
Fore
SplineSet
161 906 m 128,-1,1
 161 1057 161 1057 274 1146 c 128,-1,2
 387 1235 387 1235 576 1235 c 128,-1,3
 765 1235 765 1235 1002 1146 c 1,4,-1
 1002 891 l 1,5,-1
 900 891 l 1,6,7
 886 1016 886 1016 815 1072 c 0,8,9
 744 1127 744 1127 612 1127 c 0,10,11
 610 1127 610 1127 607 1127 c 0,12,13
 337 1127 337 1127 337 938 c 0,14,15
 337 858 337 858 387 812.5 c 128,-1,16
 437 767 437 767 599 722 c 1,17,-1
 747 678 l 2,18,19
 921 627 921 627 995.5 547 c 128,-1,20
 1070 467 1070 467 1070 333 c 0,21,22
 1070 -35 1070 -35 605 -35 c 0,23,24
 399 -35 399 -35 177 67 c 1,25,-1
 177 336 l 1,26,-1
 281 336 l 1,27,28
 281 202 281 202 359 137.5 c 128,-1,29
 437 73 437 73 587 73 c 0,30,31
 889 73 889 73 889 280 c 0,32,33
 889 361 889 361 843.5 404.5 c 128,-1,34
 798 448 798 448 652 489 c 1,35,-1
 493 536 l 2,36,37
 310 591 310 591 235.5 673 c 128,-1,0
 161 755 161 755 161 906 c 128,-1,1
EndSplineSet
Validated: 1
EndChar

StartChar: T
Encoding: 84 84 52
Width: 1151
VWidth: 0
GlyphClass: 2
Flags: W
HStem: 0 106<330 484 667 821> 851 352<20 131 1020 1131> 1084 119<131 484 667 1020>
VStem: 20 111<851 1084> 484 183<106 1084> 1020 111<851 1084>
CounterMasks: 1 1c
LayerCount: 2
Fore
SplineSet
20 851 m 1,0,-1
 20 1203 l 1,1,-1
 1131 1203 l 1,2,-1
 1131 851 l 1,3,-1
 1020 851 l 1,4,-1
 1020 1084 l 1,5,-1
 667 1084 l 1,6,-1
 667 106 l 1,7,-1
 821 106 l 1,8,-1
 821 0 l 1,9,-1
 330 0 l 1,10,-1
 330 106 l 1,11,-1
 484 106 l 1,12,-1
 484 1084 l 1,13,-1
 131 1084 l 1,14,-1
 131 851 l 1,15,-1
 20 851 l 1,0,-1
EndSplineSet
Validated: 1
EndChar

StartChar: U
Encoding: 85 85 53
Width: 1459
VWidth: 0
GlyphClass: 2
Flags: W
HStem: -23 131<560.37 972.336> 1096 107<94 248 431 585 947 1101 1212 1365>
VStem: 248 183<246.858 1096> 1101 111<245.625 1096>
LayerCount: 2
Fore
SplineSet
94 1096 m 1,0,-1
 94 1203 l 1,1,-1
 585 1203 l 1,2,-1
 585 1096 l 1,3,-1
 431 1096 l 1,4,-1
 431 502 l 2,5,6
 431 282 431 282 506.5 195 c 128,-1,7
 582 108 582 108 766 108 c 256,8,9
 950 108 950 108 1025.5 195 c 128,-1,10
 1101 282 1101 282 1101 502 c 2,11,-1
 1101 1096 l 1,12,-1
 947 1096 l 1,13,-1
 947 1203 l 1,14,-1
 1365 1203 l 1,15,-1
 1365 1096 l 1,16,-1
 1212 1096 l 1,17,-1
 1212 470 l 1,18,19
 1212 200 1212 200 1101 88.5 c 128,-1,20
 990 -23 990 -23 732 -23 c 256,21,22
 470 -23 470 -23 359 89.5 c 128,-1,23
 248 202 248 202 248 470 c 2,24,-1
 248 1096 l 1,25,-1
 94 1096 l 1,0,-1
EndSplineSet
Validated: 1
EndChar

StartChar: V
Encoding: 86 86 54
Width: 1237
VWidth: 0
GlyphClass: 2
Flags: W
HStem: 0 21G<536.788 701.248> 1096 107<-25 95 307 429 892 1031 1145 1262>
DStem2: 307 1096 95 1096 0.379816 -0.925062<0 950.243> 668 217 693 0 0.381259 0.924468<0 951.005>
LayerCount: 2
Fore
SplineSet
-25 1096 m 1,0,-1
 -25 1203 l 1,1,-1
 429 1203 l 1,2,-1
 429 1096 l 1,3,-1
 307 1096 l 1,4,-1
 668 217 l 1,5,-1
 1031 1096 l 1,6,-1
 892 1096 l 1,7,-1
 892 1203 l 1,8,-1
 1262 1203 l 1,9,-1
 1262 1096 l 1,10,-1
 1145 1096 l 1,11,-1
 693 0 l 1,12,-1
 545 0 l 1,13,-1
 95 1096 l 1,14,-1
 -25 1096 l 1,0,-1
EndSplineSet
Validated: 1
EndChar

StartChar: W
Encoding: 87 87 55
Width: 1805
VWidth: 0
GlyphClass: 2
Flags: W
HStem: 0 21G<457.85 619.381 1204.58 1348.15> 1096 107<8 127 321 474 1431 1579 1679 1797>
DStem2: 321 1096 127 1096 0.293902 -0.955836<0 898.653> 585 237 613 0 0.303774 0.952744<0 763.093> 1014 1203 911 934 0.305393 -0.952226<224.693 998.712> 1319 252 1342 0 0.293902 0.955836<0 883.14>
LayerCount: 2
Fore
SplineSet
8 1096 m 1,0,-1
 8 1203 l 1,1,-1
 474 1203 l 1,2,-1
 474 1096 l 1,3,-1
 321 1096 l 1,4,-1
 585 237 l 1,5,-1
 893 1203 l 1,6,-1
 1014 1203 l 1,7,-1
 1319 252 l 1,8,-1
 1579 1096 l 1,9,-1
 1431 1096 l 1,10,-1
 1431 1203 l 1,11,-1
 1797 1203 l 1,12,-1
 1797 1096 l 1,13,-1
 1679 1096 l 1,14,-1
 1342 0 l 1,15,-1
 1211 0 l 1,16,-1
 911 934 l 1,17,-1
 613 0 l 1,18,-1
 464 0 l 1,19,-1
 127 1096 l 1,20,-1
 8 1096 l 1,0,-1
EndSplineSet
Validated: 1
EndChar

StartChar: X
Encoding: 88 88 56
Width: 1255
VWidth: 0
GlyphClass: 2
Flags: W
HStem: 0 106<14 152 277 417 715 869 1116 1244> 1096 107<11 140 386 505 745 919 1043 1178>
DStem2: 386 1096 140 1096 0.593476 -0.804851<0 437.612 596.436 1083.45> 152 106 277 106 0.612447 0.790512<76.5559 572.008 806.895 1252.35>
LayerCount: 2
Fore
SplineSet
11 1096 m 1,0,-1
 11 1203 l 1,1,-1
 505 1203 l 1,2,-1
 505 1096 l 1,3,-1
 386 1096 l 1,4,-1
 646 744 l 1,5,-1
 919 1096 l 1,6,-1
 745 1096 l 1,7,-1
 745 1203 l 1,8,-1
 1178 1203 l 1,9,-1
 1178 1096 l 1,10,-1
 1043 1096 l 1,11,-1
 706 661 l 1,12,-1
 1116 106 l 1,13,-1
 1244 106 l 1,14,-1
 1244 0 l 1,15,-1
 715 0 l 1,16,-1
 715 106 l 1,17,-1
 869 106 l 1,18,-1
 580 498 l 1,19,-1
 277 106 l 1,20,-1
 417 106 l 1,21,-1
 417 0 l 1,22,-1
 14 0 l 1,23,-1
 14 106 l 1,24,-1
 152 106 l 1,25,-1
 520 581 l 1,26,-1
 140 1096 l 1,27,-1
 11 1096 l 1,0,-1
EndSplineSet
Validated: 1
EndChar

StartChar: Y
Encoding: 89 89 57
Width: 1145
VWidth: 0
GlyphClass: 2
Flags: W
HStem: 0 106<324 490 673 834> 1096 107<-20 92 324 450 806 934 1052 1166>
VStem: 490 183<106 528>
DStem2: 324 1096 92 1096 0.573849 -0.818961<0 541.841> 636 653 673 535 0.559803 0.828626<0 533.902>
LayerCount: 2
Fore
SplineSet
-20 1096 m 1,0,-1
 -20 1203 l 1,1,-1
 450 1203 l 1,2,-1
 450 1096 l 1,3,-1
 324 1096 l 1,4,-1
 636 653 l 1,5,-1
 934 1096 l 1,6,-1
 806 1096 l 1,7,-1
 806 1203 l 1,8,-1
 1166 1203 l 1,9,-1
 1166 1096 l 1,10,-1
 1052 1096 l 1,11,-1
 673 535 l 1,12,-1
 673 106 l 1,13,-1
 834 106 l 1,14,-1
 834 0 l 1,15,-1
 324 0 l 1,16,-1
 324 106 l 1,17,-1
 490 106 l 1,18,-1
 490 528 l 1,19,-1
 92 1096 l 1,20,-1
 -20 1096 l 1,0,-1
EndSplineSet
Validated: 1
EndChar

StartChar: Z
Encoding: 90 90 58
Width: 1252
VWidth: 0
GlyphClass: 2
Flags: W
HStem: 0 123<366 1056> 1080 123<231 886>
VStem: 120 111<909 1080> 1056 110<123 283>
DStem2: 86 72 366 123 0.621658 0.783289<214.012 1286.88>
LayerCount: 2
Fore
SplineSet
86 0 m 1,0,-1
 86 72 l 1,1,-1
 886 1080 l 1,2,-1
 231 1080 l 1,3,-1
 231 909 l 1,4,-1
 120 909 l 1,5,-1
 120 1203 l 1,6,-1
 1166 1203 l 1,7,-1
 1166 1131 l 1,8,-1
 366 123 l 1,9,-1
 1056 123 l 1,10,-1
 1056 283 l 1,11,-1
 1166 283 l 1,12,-1
 1166 0 l 1,13,-1
 86 0 l 1,0,-1
EndSplineSet
Validated: 1
EndChar

StartChar: bracketleft
Encoding: 91 91 59
Width: 728
VWidth: 0
GlyphClass: 2
Flags: W
HStem: -229 107<340 561> 1157 107<340 561>
VStem: 167 394<-229 -122 1157 1264> 167 173<-122 1157>
LayerCount: 2
Fore
SplineSet
167 -229 m 1,0,-1
 167 1264 l 1,1,-1
 561 1264 l 1,2,-1
 561 1157 l 1,3,-1
 340 1157 l 1,4,-1
 340 -122 l 1,5,-1
 561 -122 l 1,6,-1
 561 -229 l 1,7,-1
 167 -229 l 1,0,-1
EndSplineSet
Validated: 1
EndChar

StartChar: backslash
Encoding: 92 92 60
Width: 611
VWidth: 0
GlyphClass: 2
Flags: W
HStem: 1183 20G<0 151.853>
VStem: 0 611
DStem2: 145 1203 0 1203 0.324146 -0.946007<0 1390.62>
LayerCount: 2
Fore
SplineSet
0 1203 m 1,0,-1
 145 1203 l 1,1,-1
 611 -157 l 1,2,-1
 466 -157 l 1,3,-1
 0 1203 l 1,0,-1
EndSplineSet
Validated: 1
EndChar

StartChar: bracketright
Encoding: 93 93 61
Width: 728
VWidth: 0
GlyphClass: 2
Flags: W
HStem: -229 107<167 388> 1157 107<167 388>
VStem: 167 394<-229 -122 1157 1264> 388 173<-122 1157>
LayerCount: 2
Fore
SplineSet
167 -122 m 1,0,-1
 388 -122 l 1,1,-1
 388 1157 l 1,2,-1
 167 1157 l 1,3,-1
 167 1264 l 1,4,-1
 561 1264 l 1,5,-1
 561 -229 l 1,6,-1
 167 -229 l 1,7,-1
 167 -122 l 1,0,-1
EndSplineSet
Validated: 1
EndChar

StartChar: asciicircum
Encoding: 94 94 62
Width: 1466
VWidth: 0
GlyphClass: 2
Flags: W
HStem: 646 557
LayerCount: 2
Fore
SplineSet
217 646 m 1,0,-1
 654 1203 l 1,1,-1
 812 1203 l 1,2,-1
 1249 646 l 1,3,-1
 1126 646 l 1,4,-1
 733 1027 l 1,5,-1
 341 646 l 1,6,-1
 217 646 l 1,0,-1
EndSplineSet
Validated: 1
EndChar

StartChar: underscore
Encoding: 95 95 63
Width: 824
VWidth: 0
GlyphClass: 2
Flags: W
HStem: -398 81<0 824>
LayerCount: 2
Fore
SplineSet
0 -317 m 1,0,-1
 824 -317 l 1,1,-1
 824 -398 l 1,2,-1
 0 -398 l 1,3,-1
 0 -317 l 1,0,-1
EndSplineSet
Validated: 1
EndChar

StartChar: grave
Encoding: 96 96 64
Width: 935
VWidth: 0
GlyphClass: 2
Flags: W
HStem: 978 377
VStem: 284 368
LayerCount: 2
Fore
SplineSet
284 1355 m 1,0,-1
 442 1355 l 1,1,-1
 652 978 l 1,2,-1
 558 978 l 1,3,-1
 284 1355 l 1,0,-1
EndSplineSet
Validated: 1
EndChar

StartChar: braceleft
Encoding: 123 123 65
Width: 1166
VWidth: 0
GlyphClass: 2
Flags: W
HStem: -280 106<736.011 910> 439 106<256 387.836> 1158 106<736.011 910>
VStem: 506 167<-112.938 295.867 687.01 1097.5>
CounterMasks: 1 e0
LayerCount: 2
Fore
SplineSet
256 439 m 5,0,-1
 256 545 l 5,1,2
 506 545 506 545 506 967 c 4,3,4
 506 1142 506 1142 577 1203 c 132,-1,5
 648 1264 648 1264 910 1264 c 5,6,-1
 910 1158 l 5,7,8
 673 1158 673 1158 673 977 c 4,9,10
 673 523 673 523 522 493 c 5,11,12
 673 458 673 458 673 7 c 4,13,14
 673 -174 673 -174 910 -174 c 5,15,-1
 910 -280 l 5,16,17
 506 -280 506 -280 506 17 c 4,18,19
 506 439 506 439 256 439 c 5,0,-1
EndSplineSet
Validated: 1
EndChar

StartChar: bar
Encoding: 124 124 66
Width: 675
VWidth: 0
GlyphClass: 2
Flags: W
VStem: 264 147<-389 1261>
LayerCount: 2
Fore
SplineSet
264 -389 m 1,0,-1
 264 1261 l 1,1,-1
 411 1261 l 1,2,-1
 411 -389 l 1,3,-1
 264 -389 l 1,0,-1
EndSplineSet
Validated: 1
EndChar

StartChar: braceright
Encoding: 125 125 67
Width: 1166
VWidth: 0
GlyphClass: 2
Flags: W
HStem: -280 106<256 429.989> 439 106<778.164 910> 1158 106<256 429.989>
VStem: 493 167<-112.938 295.867 687.01 1097.5>
CounterMasks: 1 e0
LayerCount: 2
Fore
SplineSet
910 439 m 1,0,1
 660 439 660 439 660 17 c 0,2,3
 660 -280 660 -280 256 -280 c 1,4,-1
 256 -174 l 1,5,6
 493 -174 493 -174 493 7 c 0,7,8
 493 458 493 458 644 493 c 1,9,10
 493 523 493 523 493 977 c 0,11,12
 493 1158 493 1158 256 1158 c 1,13,-1
 256 1264 l 1,14,15
 518 1264 518 1264 589 1203 c 128,-1,16
 660 1142 660 1142 660 967 c 0,17,18
 660 545 660 545 910 545 c 1,19,-1
 910 439 l 1,0,1
EndSplineSet
Validated: 1
EndChar

StartChar: asciitilde
Encoding: 126 126 68
Width: 1465
VWidth: 0
GlyphClass: 2
Flags: W
HStem: 338 150<216 366> 348 170<799.045 1094.54> 488 171<367.222 666.639> 521 148<1100 1248>
LayerCount: 2
Fore
SplineSet
216 338 m 1,0,-1
 216 488 l 1,1,2
 370 659 370 659 516 659 c 0,3,4
 605 659 605 659 744.5 588.5 c 128,-1,5
 884 518 884 518 962 518 c 0,6,7
 1110 518 1110 518 1248 669 c 1,8,-1
 1248 521 l 1,9,10
 1092 348 1092 348 948 348 c 0,11,12
 850 348 850 348 696 430 c 1,13,14
 578 488 578 488 502 488 c 0,15,16
 356 488 356 488 216 338 c 1,0,-1
EndSplineSet
Validated: 1
EndChar

StartChar: sfthyphen
Encoding: 173 173 70
Width: 643
VWidth: 0
GlyphClass: 2
Flags: W
HStem: 363 157<90 553>
VStem: 90 463<363 520>
LayerCount: 2
Fore
SplineSet
90 363 m 1,0,-1
 90 520 l 1,1,-1
 553 520 l 1,2,-1
 553 363 l 1,3,-1
 90 363 l 1,0,-1
EndSplineSet
Validated: 1
EndChar

StartChar: uni2010
Encoding: 8208 8208 74
Width: 643
VWidth: 0
GlyphClass: 2
Flags: W
HStem: 363 157<90 553>
VStem: 90 463<363 520>
LayerCount: 2
Fore
SplineSet
90 363 m 1,0,-1
 90 520 l 1,1,-1
 553 520 l 1,2,-1
 553 363 l 1,3,-1
 90 363 l 1,0,-1
EndSplineSet
Validated: 1
EndChar

StartChar: endash
Encoding: 8211 8211 76
Width: 859
VWidth: 0
GlyphClass: 2
Flags: W
HStem: 371 134<90 769>
VStem: 90 679<371 505>
LayerCount: 2
Fore
SplineSet
90 371 m 1,0,-1
 90 505 l 1,1,-1
 769 505 l 1,2,-1
 769 371 l 1,3,-1
 90 371 l 1,0,-1
EndSplineSet
Validated: 1
EndChar

StartChar: quoteleft
Encoding: 8216 8216 77
Width: 604
VWidth: 0
GlyphClass: 2
Flags: W
HStem: 767 507
VStem: 156 175<767 1034.9>
LayerCount: 2
Fore
SplineSet
156 767 m 1,0,1
 156 941 156 941 211 1062 c 128,-1,2
 266 1183 266 1183 386 1274 c 1,3,-1
 448 1194 l 1,4,5
 386 1130 386 1130 358 1044 c 0,6,7
 331 961 331 961 331 839 c 0,8,9
 331 835 331 835 331 830 c 2,10,-1
 331 767 l 1,11,-1
 156 767 l 1,0,1
EndSplineSet
Validated: 1
EndChar

StartChar: quoteright
Encoding: 8217 8217 78
Width: 603
VWidth: 0
GlyphClass: 2
Flags: W
HStem: 697 506
VStem: 274 175<936.091 1203>
LayerCount: 2
Fore
SplineSet
154 777 m 1,0,1
 217 840 217 840 245.5 926 c 128,-1,2
 274 1012 274 1012 274 1142 c 2,3,-1
 274 1203 l 1,4,-1
 449 1203 l 1,5,6
 449 1030 449 1030 393.5 909 c 128,-1,7
 338 788 338 788 218 697 c 1,8,-1
 154 777 l 1,0,1
EndSplineSet
Validated: 1
EndChar

StartChar: quotedblleft
Encoding: 8220 8220 79
Width: 942
VWidth: 0
GlyphClass: 2
Flags: W
HStem: 767 507
VStem: 156 175<767 1034.9> 493 176<767 1035.49>
LayerCount: 2
Fore
SplineSet
156 767 m 1,0,1
 156 941 156 941 211.5 1062 c 128,-1,2
 267 1183 267 1183 386 1274 c 1,3,-1
 449 1194 l 1,4,5
 387 1130 387 1130 359 1044.5 c 128,-1,6
 331 959 331 959 331 830 c 2,7,-1
 331 767 l 1,8,-1
 156 767 l 1,0,1
493 767 m 1,9,10
 493 942 493 942 548.5 1062.5 c 128,-1,11
 604 1183 604 1183 723 1274 c 1,12,-1
 786 1194 l 1,13,14
 725 1130 725 1130 697 1044.5 c 128,-1,15
 669 959 669 959 669 830 c 2,16,-1
 669 767 l 1,17,-1
 493 767 l 1,9,10
EndSplineSet
Validated: 1
EndChar

StartChar: quotedblright
Encoding: 8221 8221 80
Width: 941
VWidth: 0
GlyphClass: 2
Flags: W
HStem: 697 506
VStem: 274 175<936.091 1203> 611 175<934.908 1203>
LayerCount: 2
Fore
SplineSet
155 777 m 1,0,1
 218 840 218 840 246 926 c 128,-1,2
 274 1012 274 1012 274 1142 c 2,3,-1
 274 1203 l 1,4,-1
 449 1203 l 1,5,6
 449 1030 449 1030 393.5 909 c 128,-1,7
 338 788 338 788 218 697 c 1,8,-1
 155 777 l 1,0,1
494 777 m 1,9,10
 555 840 555 840 583 925.5 c 128,-1,11
 611 1011 611 1011 611 1140 c 2,12,-1
 611 1203 l 1,13,-1
 786 1203 l 1,14,15
 786 1028 786 1028 730.5 908 c 128,-1,16
 675 788 675 788 557 697 c 1,17,-1
 494 777 l 1,9,10
EndSplineSet
Validated: 1
EndChar

StartChar: bullet
Encoding: 8226 8226 81
Width: 1151
VWidth: 0
GlyphClass: 2
Flags: W
HStem: 316 593<431.644 720.098>
VStem: 307 537<448.125 778.281>
LayerCount: 2
Fore
SplineSet
307 613.5 m 128,-1,1
 307 738 307 738 385 823.5 c 128,-1,2
 463 909 463 909 576 909 c 128,-1,3
 689 909 689 909 766.5 823.5 c 128,-1,4
 844 738 844 738 844 613 c 128,-1,5
 844 488 844 488 767 402 c 128,-1,6
 690 316 690 316 576 316 c 256,7,8
 463 316 463 316 385 402.5 c 128,-1,0
 307 489 307 489 307 613.5 c 128,-1,1
EndSplineSet
Validated: 1
EndChar

StartChar: uni2023
Encoding: 8227 8227 82
Width: 1144
VWidth: 0
GlyphClass: 2
Flags: W
HStem: 310 606
VStem: 267 610<5 1221>
LayerCount: 2
Fore
SplineSet
267 310 m 1,0,-1
 267 916 l 1,1,-1
 877 613 l 1,2,-1
 267 310 l 1,0,-1
EndSplineSet
Validated: 1
EndChar

StartChar: zero.onum
Encoding: 65536 -1 83
Width: 1292
VWidth: 0
Flags: W
HStem: -34 100<484.334 812.529> 1134 100<484.334 814.855>
VStem: 135 191<281.472 918.528> 966 191<278.103 922.628>
LayerCount: 2
Fore
SplineSet
135 600 m 128,-1,1
 135 900 135 900 250.5 1067 c 128,-1,2
 366 1234 366 1234 646.5 1234 c 128,-1,3
 927 1234 927 1234 1042 1067 c 128,-1,4
 1157 900 1157 900 1157 600 c 128,-1,5
 1157 300 1157 300 1042 133 c 128,-1,6
 927 -34 927 -34 646.5 -34 c 128,-1,7
 366 -34 366 -34 250.5 133 c 128,-1,0
 135 300 135 300 135 600 c 128,-1,1
326 600 m 128,-1,9
 326 332 326 332 401 199 c 128,-1,10
 476 66 476 66 647 66 c 256,11,12
 818 66 818 66 892 199 c 128,-1,13
 966 332 966 332 966 601 c 128,-1,14
 966 870 966 870 903 1002 c 1,15,16
 820 1134 820 1134 647 1134 c 256,17,18
 476 1134 476 1134 401 1001 c 128,-1,8
 326 868 326 868 326 600 c 128,-1,9
EndSplineSet
Validated: 1
EndChar

StartChar: one.onum
Encoding: 65537 -1 84
Width: 1185
VWidth: 0
Flags: W
HStem: 0 106<166 500 684 1024> 1216 20G<468.848 684>
VStem: 500 184<106 1067>
LayerCount: 2
Fore
SplineSet
162 1019 m 1,0,-1
 500 1236 l 1,1,-1
 684 1236 l 1,2,-1
 684 106 l 1,3,-1
 1024 106 l 1,4,-1
 1024 0 l 1,5,-1
 166 0 l 1,6,-1
 166 106 l 1,7,-1
 500 106 l 1,8,-1
 500 1067 l 1,9,-1
 164 885 l 1,10,-1
 162 1019 l 1,0,-1
EndSplineSet
Validated: 1
EndChar

StartChar: two.onum
Encoding: 65538 -1 85
Width: 1179
VWidth: 0
Flags: W
HStem: 0 164<402 904> 1126 99<375.057 706.805>
VStem: 180 101<909 1032.55> 800 191<720.927 1033.79> 904 106<164 305>
DStem2: 170 107 402 164 0.744993 0.667073<210.861 823.864>
LayerCount: 2
Fore
SplineSet
170 0 m 1,0,-1
 170 107 l 1,1,-1
 562 458 l 1,2,3
 690 575 690 575 745 672 c 128,-1,4
 800 769 800 769 800 881.5 c 128,-1,5
 800 994 800 994 733 1060 c 128,-1,6
 666 1126 666 1126 548 1126 c 0,7,8
 305 1126 305 1126 281 909 c 1,9,-1
 180 909 l 1,10,-1
 180 1112 l 1,11,12
 371 1225 371 1225 563.5 1225 c 128,-1,13
 756 1225 756 1225 873.5 1132 c 128,-1,14
 991 1039 991 1039 991 879 c 0,15,16
 991 698 991 698 718 447 c 0,17,18
 693 424 693 424 688 419 c 2,19,-1
 402 164 l 1,20,-1
 904 164 l 1,21,-1
 904 305 l 1,22,-1
 1010 305 l 1,23,-1
 1010 0 l 1,24,-1
 170 0 l 1,0,-1
EndSplineSet
Validated: 1
EndChar

StartChar: three.onum
Encoding: 65539 -1 86
Width: 1158
VWidth: 0
Flags: W
HStem: -34 106<345.055 710.684> 600 103<438 661.427> 1097 106<435.156 715.077>
VStem: 154 101<154.066 293> 286 101<921 1050.21> 765 140<787.885 1049.3> 813 191<170.976 490.696>
LayerCount: 2
Fore
SplineSet
154 68 m 1,0,-1
 154 293 l 1,1,-1
 255 293 l 1,2,3
 255 72 255 72 539 72 c 0,4,5
 666 72 666 72 739.5 137.5 c 128,-1,6
 813 203 813 203 813 331.5 c 128,-1,7
 813 460 813 460 737.5 530 c 128,-1,8
 662 600 662 600 517 600 c 2,9,-1
 438 600 l 1,10,-1
 438 703 l 1,11,-1
 479 703 l 2,12,13
 765 703 765 703 765 927 c 0,14,15
 765 1097 765 1097 577 1097 c 256,16,17
 387 1097 387 1097 387 921 c 5,18,-1
 286 921 l 5,19,-1
 286 1094 l 1,20,21
 347 1202 347 1202 581 1203 c 0,22,23
 905 1205 905 1205 905 956 c 0,24,25
 905 713 905 713 664 658 c 1,26,27
 825 637 825 637 914.5 548.5 c 128,-1,28
 1004 460 1004 460 1004 304.5 c 128,-1,29
 1004 149 1004 149 884 57.5 c 128,-1,30
 764 -34 764 -34 551 -34 c 128,-1,31
 338 -34 338 -34 154 68 c 1,0,-1
EndSplineSet
EndChar

StartChar: four.onum
Encoding: 65540 -1 87
Width: 1126
VWidth: 0
Flags: W
HStem: 0 106<474 676 860 1054> 315 107<156 676 862 1090>
VStem: 676 186<106 315 422 1091>
DStem2: 36 424 156 422 0.618077 0.786117<72.5971 919.91>
LayerCount: 2
Fore
SplineSet
36 315 m 1,0,-1
 36 424 l 1,1,-1
 676 1238 l 1,2,-1
 862 1238 l 1,3,-1
 862 422 l 1,4,-1
 1090 422 l 1,5,-1
 1090 315 l 1,6,-1
 860 315 l 1,7,-1
 860 106 l 1,8,-1
 1054 106 l 1,9,-1
 1054 0 l 1,10,-1
 474 0 l 1,11,-1
 474 106 l 1,12,-1
 676 106 l 1,13,-1
 676 315 l 1,14,-1
 36 315 l 1,0,-1
156 422 m 1,15,-1
 676 422 l 1,16,-1
 676 1091 l 1,17,-1
 156 422 l 1,15,-1
EndSplineSet
Validated: 1
EndChar

StartChar: five.onum
Encoding: 65541 -1 88
Width: 1151
VWidth: 0
Flags: W
HStem: -23 101<355.208 686.375> 683 99<363.837 686.153> 1039 164<321 881>
VStem: 166 102<158.172 296> 225 96<710 1039> 794 191<191.445 569.648>
LayerCount: 2
Fore
SplineSet
166 78 m 1,0,-1
 166 296 l 1,1,-1
 268 296 l 1,2,3
 268 189 268 189 338 133.5 c 128,-1,4
 408 78 408 78 531.5 78 c 128,-1,5
 655 78 655 78 724.5 155.5 c 128,-1,6
 794 233 794 233 794 379.5 c 128,-1,7
 794 526 794 526 726 604.5 c 128,-1,8
 658 683 658 683 522 683 c 128,-1,9
 386 683 386 683 303 584 c 1,10,-1
 225 584 l 1,11,-1
 225 1203 l 1,12,-1
 881 1203 l 1,13,-1
 881 1039 l 1,14,-1
 321 1039 l 1,15,-1
 321 710 l 1,16,17
 407 782 407 782 551 782 c 0,18,19
 752 782 752 782 868.5 674.5 c 128,-1,20
 985 567 985 567 985 380 c 2,21,-1
 985 377 l 2,22,23
 985 189 985 189 868.5 83 c 128,-1,24
 752 -23 752 -23 530 -23 c 1,25,-1
 517 -23 l 2,26,27
 347 -23 347 -23 166 78 c 1,0,-1
EndSplineSet
Validated: 1
EndChar

StartChar: six.onum
Encoding: 65542 -1 89
Width: 1142
VWidth: 0
Flags: W
HStem: -34 100<446.012 720.111> 692 100<439.98 719.765> 1134 100<472.371 768.784>
VStem: 133 187<653 879.596> 818 191<177.564 584.938> 836 102<927 1067>
LayerCount: 2
Fore
SplineSet
133 578.5 m 128,-1,1
 133 882 133 882 268 1058 c 128,-1,2
 403 1234 403 1234 649 1234 c 0,3,4
 788 1234 788 1234 938 1173 c 1,5,-1
 938 927 l 1,6,-1
 836 927 l 1,7,8
 836 1028 836 1028 778.5 1081 c 128,-1,9
 721 1134 721 1134 633 1134 c 0,10,11
 476 1134 476 1134 398 1016 c 128,-1,12
 320 898 320 898 320 653 c 1,13,14
 431 792 431 792 612.5 792 c 128,-1,15
 794 792 794 792 901.5 681.5 c 128,-1,16
 1009 571 1009 571 1009 381 c 128,-1,17
 1009 191 1009 191 891 78.5 c 128,-1,18
 773 -34 773 -34 567.5 -34 c 128,-1,19
 362 -34 362 -34 247.5 120.5 c 128,-1,0
 133 275 133 275 133 578.5 c 128,-1,1
347 384.5 m 128,-1,21
 347 233 347 233 408 149.5 c 128,-1,22
 469 66 469 66 582 66 c 256,23,24
 695 66 695 66 756.5 147 c 128,-1,25
 818 228 818 228 818 379 c 256,26,27
 818 530 818 530 757 611 c 128,-1,28
 696 692 696 692 581.5 692 c 128,-1,29
 467 692 467 692 407 614 c 128,-1,20
 347 536 347 536 347 384.5 c 128,-1,21
EndSplineSet
Validated: 1
EndChar

StartChar: seven.onum
Encoding: 65543 -1 90
Width: 1164
VWidth: 0
Flags: W
HStem: 0 21G<370 517.01> 1039 164<266 838>
VStem: 160 106<896 1039>
DStem2: 370 0 508 0 0.410743 0.911751<56.6826 1139.54>
LayerCount: 2
Fore
SplineSet
160 896 m 1,0,-1
 160 1203 l 1,1,-1
 1004 1203 l 1,2,-1
 1004 1101 l 1,3,-1
 508 0 l 1,4,-1
 370 0 l 1,5,-1
 838 1039 l 1,6,-1
 266 1039 l 1,7,-1
 266 896 l 1,8,-1
 160 896 l 1,0,-1
EndSplineSet
Validated: 1
EndChar

StartChar: eight.onum
Encoding: 65544 -1 91
Width: 1159
VWidth: 0
Flags: W
HStem: -34 100<423.558 735.397> 590 100<454.65 704.503> 1134 100<440 720>
VStem: 138 191<161.631 489.479> 182 184<765.525 1059.69> 794 184<766.772 1060.02> 830 191<159.662 490.705>
LayerCount: 2
Fore
SplineSet
138 324 m 0,0,1
 138 454 138 454 221 538 c 128,-1,2
 304 622 304 622 454 641 c 1,3,4
 322 663 322 663 252 734.5 c 128,-1,5
 182 806 182 806 182 917 c 0,6,7
 182 1064 182 1064 288 1149 c 128,-1,8
 394 1234 394 1234 580 1234 c 256,9,10
 766 1234 766 1234 872 1149.5 c 128,-1,11
 978 1065 978 1065 978 917 c 0,12,13
 978 806 978 806 907 734.5 c 128,-1,14
 836 663 836 663 706 641 c 1,15,16
 854 622 854 622 938 538 c 0,17,18
 1021 455 1021 455 1021 327 c 0,19,20
 1021 151 1021 151 906 59 c 0,21,22
 790 -34 790 -34 580 -34 c 0,23,24
 368 -34 368 -34 253 59 c 128,-1,25
 138 152 138 152 138 324 c 0,0,1
329 328 m 128,-1,27
 329 203 329 203 394.5 134.5 c 128,-1,28
 460 66 460 66 580 66 c 256,29,30
 699 66 699 66 764.5 134.5 c 128,-1,31
 830 203 830 203 830 327.5 c 128,-1,32
 830 452 830 452 764 521 c 128,-1,33
 698 590 698 590 580 590 c 256,34,35
 461 590 461 590 395 521.5 c 128,-1,26
 329 453 329 453 329 328 c 128,-1,27
366 912 m 128,-1,37
 366 807 366 807 423 748.5 c 128,-1,38
 480 690 480 690 580 690 c 128,-1,39
 680 690 680 690 737 748.5 c 128,-1,40
 794 807 794 807 794 912 c 128,-1,41
 794 1017 794 1017 737 1075.5 c 128,-1,42
 680 1134 680 1134 580 1134 c 128,-1,43
 480 1134 480 1134 423 1075.5 c 128,-1,36
 366 1017 366 1017 366 912 c 128,-1,37
EndSplineSet
Validated: 1
EndChar

StartChar: nine.onum
Encoding: 65545 -1 92
Width: 1142
VWidth: 0
Flags: W
HStem: -34 100<373.822 669.17> 409 99<422.377 699.558> 1134 100<422.106 696.546>
VStem: 134 191<613.325 1022.79> 204 101<134.234 275> 822 186<312.26 548>
LayerCount: 2
Fore
SplineSet
134 819.5 m 128,-1,1
 134 1009 134 1009 252 1121.5 c 128,-1,2
 370 1234 370 1234 575 1234 c 128,-1,3
 780 1234 780 1234 894 1080 c 0,4,5
 1008 925 1008 925 1008 619 c 0,6,7
 1008 317 1008 317 874 142 c 0,8,9
 738 -34 738 -34 494 -34 c 0,10,11
 354 -34 354 -34 204 27 c 1,12,-1
 204 275 l 1,13,-1
 305 275 l 1,14,15
 305 174 305 174 362.5 120 c 128,-1,16
 420 66 420 66 508 66 c 0,17,18
 665 66 665 66 743.5 184 c 128,-1,19
 822 302 822 302 822 548 c 1,20,21
 711 409 711 409 529.5 409 c 128,-1,22
 348 409 348 409 241 519.5 c 128,-1,0
 134 630 134 630 134 819.5 c 128,-1,1
325 821 m 256,23,24
 325 670 325 670 385.5 589 c 128,-1,25
 446 508 446 508 560 508 c 256,26,27
 674 508 674 508 735 586.5 c 128,-1,28
 796 665 796 665 796 816 c 128,-1,29
 796 967 796 967 735 1050.5 c 128,-1,30
 674 1134 674 1134 560 1134 c 128,-1,31
 446 1134 446 1134 385.5 1053.5 c 128,-1,32
 325 973 325 973 325 821 c 256,23,24
EndSplineSet
Validated: 1
EndChar

StartChar: a
Encoding: 97 97 93
Width: 1264
VWidth: 0
Flags: W
HStem: 0 106<-16 89 205 329 793 949 1162 1280> 336 108<344 802> 1183 20G<531.778 692.715>
DStem2: 89 106 205 106 0.380241 0.924887<44.1079 292.575 409.573 995.276> 684 1203 566 986 0.399459 -0.916751<151.799 742.95 860.734 1111.53>
LayerCount: 2
Fore
SplineSet
-16 0 m 1,0,-1
 -16 106 l 1,1,-1
 89 106 l 1,2,-1
 540 1203 l 1,3,-1
 684 1203 l 1,4,-1
 1162 106 l 1,5,-1
 1280 106 l 1,6,-1
 1280 0 l 1,7,-1
 793 0 l 1,8,-1
 793 106 l 1,9,-1
 949 106 l 1,10,-1
 849 336 l 1,11,-1
 299 336 l 1,12,-1
 205 106 l 1,13,-1
 329 106 l 1,14,-1
 329 0 l 1,15,-1
 -16 0 l 1,0,-1
344 444 m 1,16,-1
 802 444 l 1,17,-1
 566 986 l 1,18,-1
 344 444 l 1,16,-1
EndSplineSet
Validated: 1
EndChar

StartChar: b
Encoding: 98 98 94
Width: 1315
VWidth: 0
Flags: W
HStem: 0 106<119 272 456 893.411> 596 107<456 847.606> 1096 107<119 272 456 853.913>
VStem: 272 184<106 596 703 1096> 920 208<766.524 1030.96> 989 207<196.616 505.908>
LayerCount: 2
Fore
SplineSet
119 0 m 1,0,-1
 119 106 l 1,1,-1
 272 106 l 1,2,-1
 272 1096 l 1,3,-1
 119 1096 l 1,4,-1
 119 1203 l 1,5,-1
 743 1203 l 2,6,7
 1128 1203 1128 1203 1128 905 c 0,8,9
 1128 798 1128 798 1058 734 c 128,-1,10
 988 670 988 670 853 656 c 1,11,12
 1021 637 1021 637 1108.5 558 c 128,-1,13
 1196 479 1196 479 1196 347 c 0,14,15
 1196 168 1196 168 1077 84 c 128,-1,16
 958 0 958 0 706 0 c 2,17,-1
 119 0 l 1,0,-1
456 106 m 1,18,-1
 703 106 l 2,19,20
 989 106 989 106 989 352 c 1,21,22
 989 596 989 596 703 596 c 2,23,-1
 456 596 l 1,24,-1
 456 106 l 1,18,-1
456 703 m 1,25,-1
 663 703 l 2,26,27
 797 703 797 703 858.5 750.5 c 128,-1,28
 920 798 920 798 920 900.5 c 128,-1,29
 920 1003 920 1003 858.5 1049.5 c 128,-1,30
 797 1096 797 1096 663 1096 c 2,31,-1
 456 1096 l 1,32,-1
 456 703 l 1,25,-1
EndSplineSet
Validated: 1
EndChar

StartChar: c
Encoding: 99 99 95
Width: 1348
VWidth: 0
Flags: W
HStem: -35 108<526.547 908.489> 1127 108<523.144 926.605>
VStem: 119 207<342.273 863.667> 1063 166<157 323> 1090 102<838 966.625>
LayerCount: 2
Fore
SplineSet
119 596.5 m 128,-1,1
 119 885 119 885 286.5 1060 c 128,-1,2
 454 1235 454 1235 728 1235 c 0,3,4
 930 1235 930 1235 1192 1110 c 1,5,-1
 1192 838 l 1,6,-1
 1090 838 l 1,7,8
 1060 986 1060 986 970 1056.5 c 128,-1,9
 880 1127 880 1127 702.5 1127 c 128,-1,10
 525 1127 525 1127 425.5 993 c 128,-1,11
 326 859 326 859 326 600 c 128,-1,12
 326 341 326 341 425 207 c 128,-1,13
 524 73 524 73 716 73 c 0,14,15
 984 73 984 73 1063 323 c 1,16,-1
 1229 323 l 1,17,18
 1118 -35 1118 -35 715 -35 c 0,19,20
 468 -35 468 -35 304 127 c 1,21,0
 119 308 119 308 119 596.5 c 128,-1,1
EndSplineSet
Validated: 1
EndChar

StartChar: d
Encoding: 100 100 96
Width: 1410
VWidth: 0
Flags: W
HStem: 0 106<116 268 452 833.531> 1096 107<116 268 452 842.447>
VStem: 268 184<106 1096> 1086 208<357.13 847.9>
LayerCount: 2
Fore
SplineSet
116 0 m 1,0,-1
 116 106 l 1,1,-1
 268 106 l 1,2,-1
 268 1096 l 1,3,-1
 116 1096 l 1,4,-1
 116 1203 l 1,5,-1
 612 1203 l 2,6,7
 935 1203 935 1203 1114.5 1044.5 c 128,-1,8
 1294 886 1294 886 1294 602.5 c 128,-1,9
 1294 319 1294 319 1114 159.5 c 128,-1,10
 934 0 934 0 612 0 c 2,11,-1
 116 0 l 1,0,-1
452 106 m 1,12,-1
 602 106 l 2,13,14
 836 106 836 106 961 234.5 c 128,-1,15
 1086 363 1086 363 1086 603 c 256,16,17
 1086 843 1086 843 962 969.5 c 128,-1,18
 838 1096 838 1096 602 1096 c 2,19,-1
 452 1096 l 1,20,-1
 452 106 l 1,12,-1
EndSplineSet
Validated: 1
EndChar

StartChar: e
Encoding: 101 101 97
Width: 1305
VWidth: 0
Flags: W
HStem: 0 123<476 1056> 0 106<138 292> 587 123<476 870> 1080 123<476 1042> 1096 107<138 292>
VStem: 292 184<123 587 710 1080> 870 111<448 587 710 848> 1042 110<925 1080> 1056 111<123 278>
LayerCount: 2
Fore
SplineSet
138 0 m 1,0,-1
 138 106 l 1,1,-1
 292 106 l 1,2,-1
 292 1096 l 1,3,-1
 138 1096 l 1,4,-1
 138 1203 l 1,5,-1
 1152 1203 l 1,6,-1
 1152 925 l 1,7,-1
 1042 925 l 1,8,-1
 1042 1080 l 1,9,-1
 476 1080 l 1,10,-1
 476 710 l 1,11,-1
 870 710 l 1,12,-1
 870 848 l 1,13,-1
 981 848 l 1,14,-1
 981 448 l 1,15,-1
 870 448 l 1,16,-1
 870 587 l 1,17,-1
 476 587 l 1,18,-1
 476 123 l 1,19,-1
 1056 123 l 1,20,-1
 1056 278 l 1,21,-1
 1167 278 l 1,22,-1
 1167 0 l 1,23,-1
 138 0 l 1,0,-1
EndSplineSet
Validated: 1
EndChar

StartChar: f
Encoding: 102 102 98
Width: 1227
VWidth: 0
Flags: W
HStem: 0 106<100 252 436 628> 586 123<436 846> 1080 123<436 1016> 1096 107<100 252>
VStem: 252 184<106 586 709 1080> 846 111<446 586 709 848> 1016 111<925 1080>
LayerCount: 2
Fore
SplineSet
100 0 m 1,0,-1
 100 106 l 1,1,-1
 252 106 l 1,2,-1
 252 1096 l 1,3,-1
 100 1096 l 1,4,-1
 100 1203 l 1,5,-1
 1127 1203 l 1,6,-1
 1127 925 l 1,7,-1
 1016 925 l 1,8,-1
 1016 1080 l 1,9,-1
 436 1080 l 1,10,-1
 436 709 l 1,11,-1
 846 709 l 1,12,-1
 846 848 l 1,13,-1
 957 848 l 1,14,-1
 957 446 l 1,15,-1
 846 446 l 1,16,-1
 846 586 l 1,17,-1
 436 586 l 1,18,-1
 436 106 l 1,19,-1
 628 106 l 1,20,-1
 628 0 l 1,21,-1
 100 0 l 1,0,-1
EndSplineSet
Validated: 1
EndChar

StartChar: g
Encoding: 103 103 99
Width: 1414
VWidth: 0
Flags: W
HStem: -35 108<556.596 999.232> 452 108<866 1092> 1127 108<558.477 966.845>
VStem: 138 207<338.048 863.98> 1092 184<135.775 452> 1127 101<843 969.125>
LayerCount: 2
Fore
SplineSet
138 601 m 128,-1,1
 138 891 138 891 307.5 1063 c 128,-1,2
 477 1235 477 1235 765 1235 c 0,3,4
 975 1235 975 1235 1228 1118 c 1,5,-1
 1228 843 l 1,6,-1
 1127 843 l 1,7,8
 1099 988 1099 988 1009 1057.5 c 128,-1,9
 919 1127 919 1127 759 1127 c 0,10,11
 345 1127 345 1127 345 600 c 0,12,13
 345 340 345 340 450.5 206.5 c 128,-1,14
 556 73 556 73 748 73 c 128,-1,15
 940 73 940 73 1092 158 c 1,16,-1
 1092 452 l 1,17,-1
 866 452 l 1,18,-1
 866 560 l 1,19,-1
 1276 560 l 1,20,-1
 1276 109 l 1,21,22
 1056 -35 1056 -35 769 -35 c 0,23,24
 765 -35 765 -35 761 -35 c 0,25,26
 477 -35 477 -35 307.5 138 c 128,-1,0
 138 311 138 311 138 601 c 128,-1,1
EndSplineSet
Validated: 1
EndChar

StartChar: h
Encoding: 104 104 100
Width: 1523
VWidth: 0
Flags: W
HStem: 0 106<113 266 450 603 920 1073 1257 1410> 588 123<450 1073> 1096 107<113 266 450 603 920 1073 1257 1410>
VStem: 266 184<106 588 711 1096> 1073 184<106 588 711 1096>
LayerCount: 2
Fore
SplineSet
113 0 m 1,0,-1
 113 106 l 1,1,-1
 266 106 l 1,2,-1
 266 1096 l 1,3,-1
 113 1096 l 1,4,-1
 113 1203 l 1,5,-1
 603 1203 l 1,6,-1
 603 1096 l 1,7,-1
 450 1096 l 1,8,-1
 450 711 l 1,9,-1
 1073 711 l 1,10,-1
 1073 1096 l 1,11,-1
 920 1096 l 1,12,-1
 920 1203 l 1,13,-1
 1410 1203 l 1,14,-1
 1410 1096 l 1,15,-1
 1257 1096 l 1,16,-1
 1257 106 l 1,17,-1
 1410 106 l 1,18,-1
 1410 0 l 1,19,-1
 920 0 l 1,20,-1
 920 106 l 1,21,-1
 1073 106 l 1,22,-1
 1073 588 l 1,23,-1
 450 588 l 1,24,-1
 450 106 l 1,25,-1
 603 106 l 1,26,-1
 603 0 l 1,27,-1
 113 0 l 1,0,-1
EndSplineSet
Validated: 1
EndChar

StartChar: i
Encoding: 105 105 101
Width: 716
VWidth: 0
Flags: W
HStem: 0 106<113 266 450 603> 1096 107<113 266 450 603>
VStem: 266 184<106 1096>
LayerCount: 2
Fore
SplineSet
113 0 m 1,0,-1
 113 106 l 1,1,-1
 266 106 l 1,2,-1
 266 1096 l 1,3,-1
 113 1096 l 1,4,-1
 113 1203 l 1,5,-1
 603 1203 l 1,6,-1
 603 1096 l 1,7,-1
 450 1096 l 1,8,-1
 450 106 l 1,9,-1
 603 106 l 1,10,-1
 603 0 l 1,11,-1
 113 0 l 1,0,-1
EndSplineSet
Validated: 1
EndChar

StartChar: j
Encoding: 106 106 102
Width: 678
VWidth: 0
Flags: W
HStem: -343 107<104.341 330.644> -275 235<-39 61.585> 1096 107<193 380 564 717>
VStem: -39 103<-195.757 -40> 380 184<-186.284 1096>
LayerCount: 2
Fore
SplineSet
-39 -40 m 1,0,-1
 64 -40 l 1,1,2
 64 -236 64 -236 208 -236 c 0,3,4
 304 -236 304 -236 342 -177.5 c 128,-1,5
 380 -119 380 -119 380 51 c 2,6,-1
 380 1096 l 1,7,-1
 193 1096 l 1,8,-1
 193 1203 l 1,9,-1
 717 1203 l 1,10,-1
 717 1096 l 1,11,-1
 564 1096 l 1,12,-1
 564 28 l 2,13,14
 564 -168 564 -168 480 -255.5 c 128,-1,15
 396 -343 396 -343 208 -343 c 0,16,17
 85 -343 85 -343 -39 -275 c 1,18,-1
 -39 -40 l 1,0,-1
EndSplineSet
Validated: 1
EndChar

StartChar: k
Encoding: 107 107 103
Width: 1325
VWidth: 0
Flags: W
HStem: 0 106<40 194 378 540 1148 1284> 1096 107<40 194 378 540 788 908 1076 1210>
VStem: 194 184<106 550 673 1096>
DStem2: 378 673 534 664 0.781994 0.623286<116.381 678.107> 534 664 378 550 0.740049 -0.672553<0 778.117>
LayerCount: 2
Fore
SplineSet
40 0 m 1,0,-1
 40 106 l 1,1,-1
 194 106 l 1,2,-1
 194 1096 l 1,3,-1
 40 1096 l 1,4,-1
 40 1203 l 1,5,-1
 540 1203 l 1,6,-1
 540 1096 l 1,7,-1
 378 1096 l 1,8,-1
 378 673 l 1,9,-1
 908 1096 l 1,10,-1
 788 1096 l 1,11,-1
 788 1203 l 1,12,-1
 1210 1203 l 1,13,-1
 1210 1096 l 1,14,-1
 1076 1096 l 1,15,-1
 534 664 l 1,16,-1
 1148 106 l 1,17,-1
 1284 106 l 1,18,-1
 1284 0 l 1,19,-1
 982 0 l 1,20,-1
 378 550 l 1,21,-1
 378 106 l 1,22,-1
 540 106 l 1,23,-1
 540 0 l 1,24,-1
 40 0 l 1,0,-1
EndSplineSet
Validated: 1
EndChar

StartChar: l
Encoding: 108 108 104
Width: 1159
VWidth: 0
Flags: W
HStem: 0 123<418 967> 0 106<81 234> 1096 107<81 234 418 571>
VStem: 234 184<123 1096> 967 111<123 316>
LayerCount: 2
Fore
SplineSet
81 0 m 1,0,-1
 81 106 l 1,1,-1
 234 106 l 1,2,-1
 234 1096 l 1,3,-1
 81 1096 l 1,4,-1
 81 1203 l 1,5,-1
 571 1203 l 1,6,-1
 571 1096 l 1,7,-1
 418 1096 l 1,8,-1
 418 123 l 1,9,-1
 967 123 l 1,10,-1
 967 316 l 1,11,-1
 1078 316 l 1,12,-1
 1078 0 l 1,13,-1
 81 0 l 1,0,-1
EndSplineSet
Validated: 1
EndChar

StartChar: m
Encoding: 109 109 105
Width: 1822
VWidth: 0
Flags: W
HStem: 0 106<112 265 376 539 1212 1375 1559 1713> 1096 107<103 265 1559 1719>
VStem: 265 111<106 990> 1375 184<106 958>
DStem2: 472 1203 376 990 0.48018 -0.87717<140.74 949.645> 928 370 929 168 0.491403 0.870933<0 731.765>
LayerCount: 2
Fore
SplineSet
103 1096 m 1,0,-1
 103 1203 l 1,1,-1
 472 1203 l 1,2,-1
 928 370 l 1,3,-1
 1398 1203 l 1,4,-1
 1719 1203 l 1,5,-1
 1719 1096 l 1,6,-1
 1559 1096 l 1,7,-1
 1559 106 l 1,8,-1
 1713 106 l 1,9,-1
 1713 0 l 1,10,-1
 1212 0 l 1,11,-1
 1212 106 l 1,12,-1
 1375 106 l 1,13,-1
 1375 958 l 1,14,-1
 929 168 l 1,15,-1
 825 168 l 1,16,-1
 376 990 l 1,17,-1
 376 106 l 1,18,-1
 539 106 l 1,19,-1
 539 0 l 1,20,-1
 112 0 l 1,21,-1
 112 106 l 1,22,-1
 265 106 l 1,23,-1
 265 1096 l 1,24,-1
 103 1096 l 1,0,-1
EndSplineSet
Validated: 1
EndChar

StartChar: n
Encoding: 110 110 106
Width: 1550
VWidth: 0
Flags: W
HStem: -23 21G<1180.22 1293> 0 106<95 257 368 540> 1096 107<95 257 1011 1182 1293 1455>
VStem: 257 111<106 965> 1182 111<295 1096>
DStem2: 421 1203 368 965 0.642774 -0.766056<148.254 1184.73>
LayerCount: 2
Fore
SplineSet
95 0 m 1,0,-1
 95 106 l 1,1,-1
 257 106 l 1,2,-1
 257 1096 l 1,3,-1
 95 1096 l 1,4,-1
 95 1203 l 1,5,-1
 421 1203 l 1,6,-1
 1182 295 l 1,7,-1
 1182 1096 l 1,8,-1
 1011 1096 l 1,9,-1
 1011 1203 l 1,10,-1
 1455 1203 l 1,11,-1
 1455 1096 l 1,12,-1
 1293 1096 l 1,13,-1
 1293 -23 l 1,14,-1
 1197 -23 l 1,15,-1
 368 965 l 1,16,-1
 368 106 l 1,17,-1
 540 106 l 1,18,-1
 540 0 l 1,19,-1
 95 0 l 1,0,-1
EndSplineSet
Validated: 1
EndChar

StartChar: o
Encoding: 111 111 107
Width: 1442
VWidth: 0
Flags: W
HStem: -34 107<524.083 914.857> 1127 109<526.037 913.989>
VStem: 114 207<344.208 855.292> 1120 208<341.834 866.575>
LayerCount: 2
Fore
SplineSet
114 600 m 256,0,1
 114 890 114 890 300 1073 c 0,2,3
 466 1236 466 1236 730 1236 c 128,-1,4
 994 1236 994 1236 1161 1062 c 128,-1,5
 1328 888 1328 888 1328 600 c 0,6,7
 1328 307 1328 307 1142 127 c 0,8,9
 976 -34 976 -34 722 -34 c 0,10,11
 464 -34 464 -34 300 127 c 1,12,13
 114 308 114 308 114 600 c 256,0,1
321 600 m 128,-1,15
 321 73 321 73 720 73 c 0,16,17
 917 73 917 73 1018.5 206 c 128,-1,18
 1120 339 1120 339 1120 600 c 0,19,20
 1120 1127 1120 1127 720.5 1127 c 128,-1,14
 321 1127 321 1127 321 600 c 128,-1,15
EndSplineSet
Validated: 1
EndChar

StartChar: p
Encoding: 112 112 108
Width: 1189
VWidth: 0
Flags: W
HStem: 0 106<93 246 430 616> 516 108<430 805.321> 1096 107<93 246 430 802.526>
VStem: 246 184<106 516 624 1096> 888 208<706.056 1014.29>
LayerCount: 2
Fore
SplineSet
93 0 m 1,0,-1
 93 106 l 1,1,-1
 246 106 l 1,2,-1
 246 1096 l 1,3,-1
 93 1096 l 1,4,-1
 93 1203 l 1,5,-1
 687 1203 l 2,6,7
 876 1203 876 1203 986 1110.5 c 128,-1,8
 1096 1018 1096 1018 1096 860.5 c 128,-1,9
 1096 703 1096 703 987 609.5 c 128,-1,10
 878 516 878 516 691 516 c 2,11,-1
 430 516 l 1,12,-1
 430 106 l 1,13,-1
 616 106 l 1,14,-1
 616 0 l 1,15,-1
 93 0 l 1,0,-1
430 624 m 1,16,-1
 642 624 l 2,17,18
 762 624 762 624 825 684.5 c 128,-1,19
 888 745 888 745 888 860 c 128,-1,20
 888 975 888 975 825 1035.5 c 128,-1,21
 762 1096 762 1096 642 1096 c 2,22,-1
 430 1096 l 1,23,-1
 430 624 l 1,16,-1
EndSplineSet
Validated: 1
EndChar

StartChar: q
Encoding: 113 113 109
Width: 1442
VWidth: 0
Flags: W
HStem: -283 186<929.219 1134> -35 108<527.124 763.827> 1127 109<526.037 913.989>
VStem: 114 207<336.458 855.292> 1120 208<340.973 867.009>
LayerCount: 2
Fore
SplineSet
114 600 m 128,-1,1
 114 890 114 890 300 1073 c 0,2,3
 466 1236 466 1236 730 1236 c 128,-1,4
 994 1236 994 1236 1161 1062.5 c 128,-1,5
 1328 889 1328 889 1328 601 c 0,6,7
 1328 359 1328 359 1201 194.5 c 128,-1,8
 1074 30 1074 30 850 -18 c 1,9,10
 938 -97 938 -97 1108 -97 c 2,11,-1
 1134 -97 l 1,12,-1
 1134 -283 l 1,13,14
 1131 -283 l 0,15,16
 860 -283 860 -283 740 -35 c 1,17,18
 453 -35 453 -35 283.5 137.5 c 128,-1,0
 114 310 114 310 114 600 c 128,-1,1
321 600 m 128,-1,20
 321 73 321 73 720 73 c 0,21,22
 917 73 917 73 1018.5 206 c 128,-1,23
 1120 339 1120 339 1120 600 c 0,24,25
 1120 1127 1120 1127 720.5 1127 c 128,-1,19
 321 1127 321 1127 321 600 c 128,-1,20
EndSplineSet
Validated: 1
EndChar

StartChar: r
Encoding: 114 114 110
Width: 1303
VWidth: 0
Flags: W
HStem: 0 106<32 184 368 540 1124 1272> 548 108<368 667.101> 1096 107<32 184 368 779.324>
VStem: 184 184<106 548 656 1096> 850 207<726.178 1026.96>
DStem2: 944 439 766 383 0.477244 -0.878771<-170.1 378.535>
LayerCount: 2
Fore
SplineSet
32 0 m 1,0,-1
 32 106 l 1,1,-1
 184 106 l 1,2,-1
 184 1096 l 1,3,-1
 32 1096 l 1,4,-1
 32 1203 l 1,5,-1
 672 1203 l 2,6,7
 857 1203 857 1203 957 1118.5 c 128,-1,8
 1057 1034 1057 1034 1057 880 c 0,9,10
 1057 630 1057 630 756 594 c 1,11,12
 876 565 876 565 944 439 c 1,13,-1
 1124 106 l 1,14,-1
 1272 106 l 1,15,-1
 1272 0 l 1,16,-1
 974 0 l 1,17,-1
 766 383 l 1,18,19
 713 487 713 487 668.5 517.5 c 128,-1,20
 624 548 624 548 546 548 c 2,21,-1
 368 548 l 1,22,-1
 368 106 l 1,23,-1
 540 106 l 1,24,-1
 540 0 l 1,25,-1
 32 0 l 1,0,-1
368 656 m 1,26,-1
 610 656 l 2,27,28
 733 656 733 656 791.5 710 c 128,-1,29
 850 764 850 764 850 876 c 256,30,31
 850 989 850 989 791 1042.5 c 128,-1,32
 732 1096 732 1096 610 1096 c 2,33,-1
 368 1096 l 1,34,-1
 368 656 l 1,26,-1
EndSplineSet
Validated: 1
EndChar

StartChar: s
Encoding: 115 115 111
Width: 1231
VWidth: 0
Flags: W
HStem: -35 108<388.124 798.053> 1127 108<410.737 797.074>
VStem: 161 176<818.343 1060.12> 177 104<174.094 336> 889 181<154.484 401.754> 900 102<891 1027.82>
DStem2: 599 722 493 536 0.95898 -0.283472<-227.03 322.701>
LayerCount: 2
Fore
SplineSet
161 906 m 128,-1,1
 161 1057 161 1057 274 1146 c 128,-1,2
 387 1235 387 1235 576 1235 c 128,-1,3
 765 1235 765 1235 1002 1146 c 1,4,-1
 1002 891 l 1,5,-1
 900 891 l 1,6,7
 886 1016 886 1016 815 1072 c 0,8,9
 744 1127 744 1127 612 1127 c 0,10,11
 610 1127 610 1127 607 1127 c 0,12,13
 337 1127 337 1127 337 938 c 0,14,15
 337 858 337 858 387 812.5 c 128,-1,16
 437 767 437 767 599 722 c 1,17,-1
 747 678 l 2,18,19
 921 627 921 627 995.5 547 c 128,-1,20
 1070 467 1070 467 1070 333 c 0,21,22
 1070 -35 1070 -35 605 -35 c 0,23,24
 399 -35 399 -35 177 67 c 1,25,-1
 177 336 l 1,26,-1
 281 336 l 1,27,28
 281 202 281 202 359 137.5 c 128,-1,29
 437 73 437 73 587 73 c 0,30,31
 889 73 889 73 889 280 c 0,32,33
 889 361 889 361 843.5 404.5 c 128,-1,34
 798 448 798 448 652 489 c 1,35,-1
 493 536 l 2,36,37
 310 591 310 591 235.5 673 c 128,-1,0
 161 755 161 755 161 906 c 128,-1,1
EndSplineSet
Validated: 1
EndChar

StartChar: t
Encoding: 116 116 112
Width: 1151
VWidth: 0
Flags: W
HStem: 0 106<330 484 667 821> 851 352<20 131 1020 1131> 1084 119<131 484 667 1020>
VStem: 20 111<851 1084> 484 183<106 1084> 1020 111<851 1084>
CounterMasks: 1 1c
LayerCount: 2
Fore
SplineSet
20 851 m 1,0,-1
 20 1203 l 1,1,-1
 1131 1203 l 1,2,-1
 1131 851 l 1,3,-1
 1020 851 l 1,4,-1
 1020 1084 l 1,5,-1
 667 1084 l 1,6,-1
 667 106 l 1,7,-1
 821 106 l 1,8,-1
 821 0 l 1,9,-1
 330 0 l 1,10,-1
 330 106 l 1,11,-1
 484 106 l 1,12,-1
 484 1084 l 1,13,-1
 131 1084 l 1,14,-1
 131 851 l 1,15,-1
 20 851 l 1,0,-1
EndSplineSet
Validated: 1
EndChar

StartChar: u
Encoding: 117 117 113
Width: 1459
VWidth: 0
Flags: W
HStem: -23 131<560.37 972.336> 1096 107<94 248 431 585 947 1101 1212 1365>
VStem: 248 183<246.858 1096> 1101 111<245.625 1096>
LayerCount: 2
Fore
SplineSet
94 1096 m 1,0,-1
 94 1203 l 1,1,-1
 585 1203 l 1,2,-1
 585 1096 l 1,3,-1
 431 1096 l 1,4,-1
 431 502 l 2,5,6
 431 282 431 282 506.5 195 c 128,-1,7
 582 108 582 108 766 108 c 256,8,9
 950 108 950 108 1025.5 195 c 128,-1,10
 1101 282 1101 282 1101 502 c 2,11,-1
 1101 1096 l 1,12,-1
 947 1096 l 1,13,-1
 947 1203 l 1,14,-1
 1365 1203 l 1,15,-1
 1365 1096 l 1,16,-1
 1212 1096 l 1,17,-1
 1212 470 l 1,18,19
 1212 200 1212 200 1101 88.5 c 128,-1,20
 990 -23 990 -23 732 -23 c 256,21,22
 470 -23 470 -23 359 89.5 c 128,-1,23
 248 202 248 202 248 470 c 2,24,-1
 248 1096 l 1,25,-1
 94 1096 l 1,0,-1
EndSplineSet
Validated: 1
EndChar

StartChar: v
Encoding: 118 118 114
Width: 1237
VWidth: 0
Flags: W
HStem: 0 21G<536.788 701.248> 1096 107<-25 95 307 429 892 1031 1145 1262>
DStem2: 307 1096 95 1096 0.379816 -0.925062<0 950.243> 668 217 693 0 0.381259 0.924468<0 951.005>
LayerCount: 2
Fore
SplineSet
-25 1096 m 1,0,-1
 -25 1203 l 1,1,-1
 429 1203 l 1,2,-1
 429 1096 l 1,3,-1
 307 1096 l 1,4,-1
 668 217 l 1,5,-1
 1031 1096 l 1,6,-1
 892 1096 l 1,7,-1
 892 1203 l 1,8,-1
 1262 1203 l 1,9,-1
 1262 1096 l 1,10,-1
 1145 1096 l 1,11,-1
 693 0 l 1,12,-1
 545 0 l 1,13,-1
 95 1096 l 1,14,-1
 -25 1096 l 1,0,-1
EndSplineSet
Validated: 1
EndChar

StartChar: w
Encoding: 119 119 115
Width: 1805
VWidth: 0
Flags: W
HStem: 0 21G<457.85 619.381 1204.58 1348.15> 1096 107<8 127 321 474 1431 1579 1679 1797>
DStem2: 321 1096 127 1096 0.293902 -0.955836<0 898.653> 585 237 613 0 0.303774 0.952744<0 763.093> 1014 1203 911 934 0.305393 -0.952226<224.693 998.712> 1319 252 1342 0 0.293902 0.955836<0 883.14>
LayerCount: 2
Fore
SplineSet
8 1096 m 1,0,-1
 8 1203 l 1,1,-1
 474 1203 l 1,2,-1
 474 1096 l 1,3,-1
 321 1096 l 1,4,-1
 585 237 l 1,5,-1
 893 1203 l 1,6,-1
 1014 1203 l 1,7,-1
 1319 252 l 1,8,-1
 1579 1096 l 1,9,-1
 1431 1096 l 1,10,-1
 1431 1203 l 1,11,-1
 1797 1203 l 1,12,-1
 1797 1096 l 1,13,-1
 1679 1096 l 1,14,-1
 1342 0 l 1,15,-1
 1211 0 l 1,16,-1
 911 934 l 1,17,-1
 613 0 l 1,18,-1
 464 0 l 1,19,-1
 127 1096 l 1,20,-1
 8 1096 l 1,0,-1
EndSplineSet
Validated: 1
EndChar

StartChar: x
Encoding: 120 120 116
Width: 1255
VWidth: 0
Flags: W
HStem: 0 106<14 152 277 417 715 869 1116 1244> 1096 107<11 140 386 505 745 919 1043 1178>
DStem2: 386 1096 140 1096 0.593476 -0.804851<0 437.612 596.436 1083.45> 152 106 277 106 0.612447 0.790512<76.5559 572.008 806.895 1252.35>
LayerCount: 2
Fore
SplineSet
11 1096 m 1,0,-1
 11 1203 l 1,1,-1
 505 1203 l 1,2,-1
 505 1096 l 1,3,-1
 386 1096 l 1,4,-1
 646 744 l 1,5,-1
 919 1096 l 1,6,-1
 745 1096 l 1,7,-1
 745 1203 l 1,8,-1
 1178 1203 l 1,9,-1
 1178 1096 l 1,10,-1
 1043 1096 l 1,11,-1
 706 661 l 1,12,-1
 1116 106 l 1,13,-1
 1244 106 l 1,14,-1
 1244 0 l 1,15,-1
 715 0 l 1,16,-1
 715 106 l 1,17,-1
 869 106 l 1,18,-1
 580 498 l 1,19,-1
 277 106 l 1,20,-1
 417 106 l 1,21,-1
 417 0 l 1,22,-1
 14 0 l 1,23,-1
 14 106 l 1,24,-1
 152 106 l 1,25,-1
 520 581 l 1,26,-1
 140 1096 l 1,27,-1
 11 1096 l 1,0,-1
EndSplineSet
Validated: 1
EndChar

StartChar: y
Encoding: 121 121 117
Width: 1145
VWidth: 0
Flags: W
HStem: 0 106<324 490 673 834> 1096 107<-20 92 324 450 806 934 1052 1166>
VStem: 490 183<106 528>
DStem2: 324 1096 92 1096 0.573849 -0.818961<0 541.841> 636 653 673 535 0.559803 0.828626<0 533.902>
LayerCount: 2
Fore
SplineSet
-20 1096 m 1,0,-1
 -20 1203 l 1,1,-1
 450 1203 l 1,2,-1
 450 1096 l 1,3,-1
 324 1096 l 1,4,-1
 636 653 l 1,5,-1
 934 1096 l 1,6,-1
 806 1096 l 1,7,-1
 806 1203 l 1,8,-1
 1166 1203 l 1,9,-1
 1166 1096 l 1,10,-1
 1052 1096 l 1,11,-1
 673 535 l 1,12,-1
 673 106 l 1,13,-1
 834 106 l 1,14,-1
 834 0 l 1,15,-1
 324 0 l 1,16,-1
 324 106 l 1,17,-1
 490 106 l 1,18,-1
 490 528 l 1,19,-1
 92 1096 l 1,20,-1
 -20 1096 l 1,0,-1
EndSplineSet
Validated: 1
EndChar

StartChar: z
Encoding: 122 122 118
Width: 1252
VWidth: 0
Flags: W
HStem: 0 123<366 1056> 1080 123<231 886>
VStem: 120 111<909 1080> 1056 110<123 283>
DStem2: 86 72 366 123 0.621658 0.783289<214.012 1286.88>
LayerCount: 2
Fore
SplineSet
86 0 m 1,0,-1
 86 72 l 1,1,-1
 886 1080 l 1,2,-1
 231 1080 l 1,3,-1
 231 909 l 1,4,-1
 120 909 l 1,5,-1
 120 1203 l 1,6,-1
 1166 1203 l 1,7,-1
 1166 1131 l 1,8,-1
 366 123 l 1,9,-1
 1056 123 l 1,10,-1
 1056 283 l 1,11,-1
 1166 283 l 1,12,-1
 1166 0 l 1,13,-1
 86 0 l 1,0,-1
EndSplineSet
Validated: 1
EndChar
